<svg width="160" height="27" viewBox="0 0 160 27" fill="none" xmlns="http://www.w3.org/2000/svg">
<path d="M13.7271 0.313965C14.6271 0.313965 15.5215 0.376628 16.4102 0.501953C17.3102 0.615885 18.1704 0.758301 18.9907 0.929199C19.8224 1.0887 20.6086 1.24821 21.3491 1.40771C22.0897 1.56722 22.7562 1.68115 23.3486 1.74951C23.2119 2.15967 23.1436 2.88314 23.1436 3.91992C23.1436 5.93652 23.4455 7.68538 24.0493 9.1665C23.981 9.37158 23.7702 9.49691 23.417 9.54248L22.6821 7.97021C22.3175 7.18408 21.8789 6.40934 21.3662 5.646C20.8535 4.87126 20.2383 4.18197 19.5205 3.57812C18.8027 2.96289 17.9653 2.46729 17.0083 2.09131C16.0627 1.71533 14.9689 1.52734 13.7271 1.52734C12.6561 1.52734 11.7048 1.70394 10.873 2.05713C10.0413 2.41032 9.31217 2.88883 8.68555 3.49268C8.05892 4.08512 7.52913 4.78011 7.09619 5.57764C6.66325 6.36377 6.31006 7.20117 6.03662 8.08984C5.77458 8.97852 5.58089 9.88997 5.45557 10.8242C5.34163 11.7585 5.28467 12.6642 5.28467 13.5415C5.28467 14.9998 5.47266 16.3955 5.84863 17.7285C6.236 19.0615 6.83415 20.2407 7.64307 21.2661C8.45199 22.2801 9.47738 23.089 10.7192 23.6929C11.9725 24.2967 13.465 24.5986 15.1968 24.5986C18.5122 24.5986 21.0187 23.5618 22.7163 21.4883C22.8986 21.4883 23.0467 21.5396 23.1606 21.6421C23.286 21.7446 23.3486 21.87 23.3486 22.0181C22.8018 22.827 22.1353 23.5277 21.3491 24.1201C20.5744 24.7126 19.7484 25.2025 18.8711 25.5898C17.9938 25.9658 17.1051 26.245 16.2051 26.4272C15.3164 26.6095 14.4904 26.7007 13.7271 26.7007C12.8953 26.7007 11.9953 26.6095 11.0269 26.4272C10.0698 26.2563 9.1071 25.9658 8.13867 25.5557C7.18164 25.1455 6.25879 24.61 5.37012 23.9492C4.49284 23.277 3.7124 22.4567 3.02881 21.4883C2.34521 20.5085 1.79834 19.3634 1.38818 18.0532C0.978027 16.743 0.772949 15.2391 0.772949 13.5415C0.772949 11.8325 0.978027 10.3229 1.38818 9.0127C1.79834 7.69108 2.34521 6.54036 3.02881 5.56055C3.7238 4.58073 4.51562 3.76042 5.4043 3.09961C6.30436 2.42741 7.23291 1.88623 8.18994 1.47607C9.14697 1.05452 10.104 0.758301 11.061 0.587402C12.0181 0.405111 12.9067 0.313965 13.7271 0.313965ZM27.9287 14.772C27.9287 13.5187 28.4984 12.4876 29.6377 11.6787C30.7884 10.8698 32.1442 10.4653 33.7051 10.4653C35.6191 10.4653 36.9635 10.847 37.7383 11.6104C38.5244 12.3737 38.9175 13.6611 38.9175 15.4727V22.5649C38.9175 23.203 39.151 23.522 39.6182 23.522C39.9941 23.522 40.4727 23.0662 41.0537 22.1548C41.4639 22.189 41.743 22.3713 41.8911 22.7017C41.8114 22.8156 41.6746 23.0207 41.481 23.3169C41.2873 23.6131 41.1449 23.8239 41.0537 23.9492C40.9626 24.0745 40.8201 24.2682 40.6265 24.5303C40.4328 24.7809 40.2733 24.9689 40.1479 25.0942C40.034 25.2196 39.8745 25.3677 39.6694 25.5386C39.4757 25.7095 39.2935 25.8405 39.1226 25.9316C38.9631 26.0114 38.7751 26.0798 38.5586 26.1367C38.3421 26.2051 38.1257 26.2393 37.9092 26.2393C37.3395 26.2393 36.8667 26.0342 36.4907 25.624C36.1261 25.2139 35.9097 24.5815 35.8413 23.7271C35.8299 23.7384 35.6533 23.9036 35.3115 24.2227C34.9697 24.5417 34.7305 24.7581 34.5938 24.8721C34.4684 24.9746 34.2235 25.1626 33.8589 25.436C33.5057 25.6981 33.2038 25.8861 32.9531 26C32.7025 26.1139 32.3892 26.2222 32.0132 26.3247C31.6372 26.4386 31.2669 26.4956 30.9023 26.4956C30.3213 26.4956 29.8029 26.4159 29.3472 26.2563C28.9028 26.0968 28.5553 25.9032 28.3047 25.6753C28.054 25.4474 27.849 25.1854 27.6895 24.8892C27.5299 24.5815 27.4217 24.3024 27.3647 24.0518C27.3192 23.8011 27.2964 23.5505 27.2964 23.2998C27.2964 22.5365 27.4217 21.8927 27.6724 21.3687C27.9344 20.8446 28.4129 20.3547 29.1079 19.8989C29.8143 19.4432 30.6802 19.0387 31.7056 18.6855C32.731 18.3324 34.1095 17.9336 35.8413 17.4893V15.1138C35.8413 13.9631 35.585 13.1029 35.0723 12.5332C34.571 11.9635 33.8931 11.6787 33.0386 11.6787C32.2752 11.6787 31.6315 11.8325 31.1074 12.1401C30.5947 12.4364 30.2814 12.7839 30.1675 13.1826C31.284 13.3535 31.8423 13.9631 31.8423 15.0112C31.8423 15.4897 31.6714 15.9113 31.3296 16.2759C30.9878 16.6405 30.5093 16.8228 29.894 16.8228C29.3813 16.8228 28.9256 16.6462 28.5269 16.293C28.1281 15.9284 27.9287 15.4214 27.9287 14.772ZM35.8413 22.1548V18.583C34.7931 18.8223 33.9272 19.0843 33.2437 19.3691C32.5601 19.6426 32.036 19.9445 31.6714 20.2749C31.3182 20.6053 31.0732 20.9471 30.9365 21.3003C30.7998 21.6421 30.7314 22.0409 30.7314 22.4966C30.7314 23.0662 30.8966 23.5163 31.2271 23.8467C31.5688 24.1657 31.9847 24.3252 32.4746 24.3252C33.6139 24.3252 34.7362 23.6017 35.8413 22.1548ZM43.8906 1.4248C46.0553 1.21973 47.9751 0.752604 49.6499 0.0234375C49.9575 0.148763 50.1569 0.302572 50.248 0.484863C50.248 13.3934 50.2936 21.118 50.3848 23.6587C50.3962 23.8979 50.4645 24.1144 50.5898 24.3081C50.7266 24.4904 50.8747 24.6385 51.0342 24.7524C51.1937 24.855 51.4102 24.9518 51.6836 25.043C51.957 25.1227 52.1678 25.1797 52.3159 25.2139C52.4754 25.2367 52.6862 25.2651 52.9482 25.2993C53.0166 25.436 53.0508 25.5785 53.0508 25.7266C53.0508 25.8747 53.0166 26 52.9482 26.1025C51.4443 26.0342 49.986 26 48.5732 26C47.1833 26 45.7363 26.0342 44.2324 26.1025C44.1868 25.9202 44.1641 25.7949 44.1641 25.7266C44.1641 25.6696 44.1868 25.5272 44.2324 25.2993C44.6084 25.2537 44.9103 25.2082 45.1382 25.1626C45.3774 25.1056 45.6737 25.0202 46.0269 24.9062C46.3914 24.7923 46.6649 24.6328 46.8472 24.4277C47.0295 24.2113 47.1263 23.9549 47.1377 23.6587C47.1833 22.5308 47.2061 20.0072 47.2061 16.0879C47.2061 14.2764 47.2004 11.8097 47.189 8.68799C47.1776 5.56624 47.1719 3.64648 47.1719 2.92871C46.5225 2.55273 45.4287 2.31917 43.8906 2.22803C43.8337 2.07992 43.8052 1.9432 43.8052 1.81787C43.8052 1.70394 43.8337 1.57292 43.8906 1.4248ZM55.2383 1.4248C57.403 1.21973 59.3228 0.752604 60.9976 0.0234375C61.3052 0.148763 61.5046 0.302572 61.5957 0.484863C61.5957 13.3934 61.6413 21.118 61.7324 23.6587C61.7438 23.8979 61.8122 24.1144 61.9375 24.3081C62.0742 24.4904 62.2223 24.6385 62.3818 24.7524C62.5413 24.855 62.7578 24.9518 63.0312 25.043C63.3047 25.1227 63.5155 25.1797 63.6636 25.2139C63.8231 25.2367 64.0339 25.2651 64.2959 25.2993C64.3643 25.436 64.3984 25.5785 64.3984 25.7266C64.3984 25.8747 64.3643 26 64.2959 26.1025C62.792 26.0342 61.3337 26 59.9209 26C58.5309 26 57.084 26.0342 55.5801 26.1025C55.5345 25.9202 55.5117 25.7949 55.5117 25.7266C55.5117 25.6696 55.5345 25.5272 55.5801 25.2993C55.9561 25.2537 56.258 25.2082 56.4858 25.1626C56.7251 25.1056 57.0213 25.0202 57.3745 24.9062C57.7391 24.7923 58.0125 24.6328 58.1948 24.4277C58.3771 24.2113 58.474 23.9549 58.4854 23.6587C58.5309 22.5308 58.5537 20.0072 58.5537 16.0879C58.5537 14.2764 58.548 11.8097 58.5366 8.68799C58.5252 5.56624 58.5195 3.64648 58.5195 2.92871C57.8701 2.55273 56.7764 2.31917 55.2383 2.22803C55.1813 2.07992 55.1528 1.9432 55.1528 1.81787C55.1528 1.70394 55.1813 1.57292 55.2383 1.4248Z" fill="#334C79"/>
<path d="M83.2314 8.10693C82.7985 6.02197 82.001 4.40413 80.8389 3.25342C79.6882 2.1027 78.3039 1.52734 76.686 1.52734C75.1024 1.52734 73.8719 1.90332 72.9946 2.65527C72.1287 3.40723 71.6958 4.40983 71.6958 5.66309C71.6958 6.35807 71.7585 6.93343 71.8838 7.38916C72.0091 7.84489 72.2655 8.28923 72.6528 8.72217C73.0402 9.14372 73.6042 9.51969 74.3447 9.8501C75.0853 10.1691 76.0537 10.4767 77.25 10.7729C77.8994 10.9325 78.4634 11.0806 78.9419 11.2173C79.4318 11.354 79.9673 11.542 80.5483 11.7812C81.1408 12.0205 81.6478 12.2769 82.0693 12.5503C82.5023 12.8237 82.9295 13.1655 83.3511 13.5757C83.784 13.9744 84.1315 14.4188 84.3936 14.9087C84.667 15.3986 84.8835 15.9797 85.043 16.6519C85.2139 17.3127 85.2993 18.0361 85.2993 18.8223C85.2993 19.8704 85.1056 20.8389 84.7183 21.7275C84.3309 22.6048 83.8239 23.3454 83.1973 23.9492C82.5706 24.5531 81.8472 25.0658 81.0269 25.4873C80.2065 25.9089 79.3748 26.2165 78.5317 26.4102C77.6886 26.6038 76.8512 26.7007 76.0195 26.7007C73.4902 26.7007 70.7957 26.0456 67.936 24.7354C67.993 23.5049 68.0215 22.7472 68.0215 22.4624C68.0215 20.6053 67.8677 18.7539 67.5601 16.9082C67.6854 16.8285 67.8107 16.7886 67.936 16.7886C68.0955 16.7886 68.238 16.8285 68.3633 16.9082C68.6025 18.3779 68.9956 19.6768 69.5425 20.8047C70.1007 21.9326 70.7388 22.827 71.4565 23.4878C72.1743 24.1372 72.9149 24.6271 73.6782 24.9575C74.453 25.2765 75.2334 25.436 76.0195 25.436C77.8083 25.436 79.1812 24.9746 80.1382 24.0518C81.1066 23.1175 81.5908 21.887 81.5908 20.3604C81.5908 18.8223 81.2319 17.6659 80.5142 16.8911C79.8078 16.105 78.452 15.467 76.4468 14.9771C73.9403 14.3504 71.9806 13.4276 70.5679 12.2085C69.1665 10.978 68.4658 9.35449 68.4658 7.33789C68.4658 6.27832 68.6367 5.33268 68.9785 4.50098C69.3317 3.65788 69.7817 2.98568 70.3286 2.48438C70.8869 1.97168 71.5363 1.55013 72.2769 1.21973C73.0174 0.87793 73.7466 0.644368 74.4644 0.519043C75.1935 0.382324 75.9341 0.313965 76.686 0.313965C78.9419 0.313965 81.2889 0.838053 83.7271 1.88623C83.6587 2.55843 83.6245 3.25911 83.6245 3.98828C83.6245 5.69727 83.7612 7.07015 84.0347 8.10693C83.8866 8.1639 83.7612 8.19238 83.6587 8.19238C83.5448 8.19238 83.4023 8.1639 83.2314 8.10693ZM90.3066 14.772C90.3066 13.5187 90.8763 12.4876 92.0156 11.6787C93.1663 10.8698 94.5221 10.4653 96.083 10.4653C97.9971 10.4653 99.3415 10.847 100.116 11.6104C100.902 12.3737 101.295 13.6611 101.295 15.4727V22.5649C101.295 23.203 101.529 23.522 101.996 23.522C102.372 23.522 102.851 23.0662 103.432 22.1548C103.842 22.189 104.121 22.3713 104.269 22.7017C104.189 22.8156 104.053 23.0207 103.859 23.3169C103.665 23.6131 103.523 23.8239 103.432 23.9492C103.34 24.0745 103.198 24.2682 103.004 24.5303C102.811 24.7809 102.651 24.9689 102.526 25.0942C102.412 25.2196 102.252 25.3677 102.047 25.5386C101.854 25.7095 101.671 25.8405 101.5 25.9316C101.341 26.0114 101.153 26.0798 100.937 26.1367C100.72 26.2051 100.504 26.2393 100.287 26.2393C99.7174 26.2393 99.2446 26.0342 98.8687 25.624C98.5041 25.2139 98.2876 24.5815 98.2192 23.7271C98.2078 23.7384 98.0312 23.9036 97.6895 24.2227C97.3477 24.5417 97.1084 24.7581 96.9717 24.8721C96.8464 24.9746 96.6014 25.1626 96.2368 25.436C95.8836 25.6981 95.5817 25.8861 95.3311 26C95.0804 26.1139 94.7671 26.2222 94.3911 26.3247C94.0151 26.4386 93.6449 26.4956 93.2803 26.4956C92.6992 26.4956 92.1808 26.4159 91.7251 26.2563C91.2808 26.0968 90.9333 25.9032 90.6826 25.6753C90.432 25.4474 90.2269 25.1854 90.0674 24.8892C89.9079 24.5815 89.7996 24.3024 89.7427 24.0518C89.6971 23.8011 89.6743 23.5505 89.6743 23.2998C89.6743 22.5365 89.7996 21.8927 90.0503 21.3687C90.3123 20.8446 90.7909 20.3547 91.4858 19.8989C92.1922 19.4432 93.0581 19.0387 94.0835 18.6855C95.1089 18.3324 96.4875 17.9336 98.2192 17.4893V15.1138C98.2192 13.9631 97.9629 13.1029 97.4502 12.5332C96.9489 11.9635 96.271 11.6787 95.4165 11.6787C94.6532 11.6787 94.0094 11.8325 93.4854 12.1401C92.9727 12.4364 92.6593 12.7839 92.5454 13.1826C93.6619 13.3535 94.2202 13.9631 94.2202 15.0112C94.2202 15.4897 94.0493 15.9113 93.7075 16.2759C93.3657 16.6405 92.8872 16.8228 92.272 16.8228C91.7593 16.8228 91.3035 16.6462 90.9048 16.293C90.506 15.9284 90.3066 15.4214 90.3066 14.772ZM98.2192 22.1548V18.583C97.1711 18.8223 96.3052 19.0843 95.6216 19.3691C94.938 19.6426 94.4139 19.9445 94.0493 20.2749C93.6961 20.6053 93.4512 20.9471 93.3145 21.3003C93.1777 21.6421 93.1094 22.0409 93.1094 22.4966C93.1094 23.0662 93.2746 23.5163 93.605 23.8467C93.9468 24.1657 94.3626 24.3252 94.8525 24.3252C95.9919 24.3252 97.1141 23.6017 98.2192 22.1548ZM111.293 7.56006C111.407 7.51449 111.538 7.4917 111.686 7.4917C111.834 7.4917 111.988 7.51449 112.147 7.56006V11.3027H117.326C117.394 11.4736 117.428 11.6844 117.428 11.9351C117.428 12.1515 117.394 12.3509 117.326 12.5332H112.147V21.6592C112.147 23.4593 112.973 24.3594 114.625 24.3594C115.252 24.3594 115.788 24.2397 116.232 24.0005C116.688 23.7612 117.189 23.4023 117.736 22.9238C118.021 22.958 118.209 23.0947 118.3 23.334C117.799 24.234 117.058 24.986 116.078 25.5898C115.098 26.1937 114.022 26.4956 112.848 26.4956C110.091 26.4956 108.712 24.8265 108.712 21.4883V12.5332H106.61C106.565 12.3281 106.542 12.1971 106.542 12.1401C106.542 12.1287 106.565 11.9977 106.61 11.7471C107.157 11.4736 107.573 11.2515 107.858 11.0806C108.154 10.8983 108.524 10.6419 108.969 10.3115C109.424 9.98112 109.835 9.59375 110.199 9.14941C110.575 8.69368 110.94 8.1639 111.293 7.56006ZM120.146 11.9351C122.356 11.7072 124.281 11.2401 125.922 10.5337C126.207 10.6476 126.406 10.7957 126.52 10.978C126.52 16.8911 126.566 21.118 126.657 23.6587C126.668 23.9549 126.754 24.2113 126.913 24.4277C127.084 24.6328 127.323 24.7923 127.631 24.9062C127.938 25.0202 128.195 25.1056 128.4 25.1626C128.605 25.2082 128.873 25.2537 129.203 25.2993C129.271 25.436 129.306 25.5785 129.306 25.7266C129.306 25.8747 129.271 26 129.203 26.1025C127.699 26.0342 126.241 26 124.828 26C123.438 26 121.991 26.0342 120.487 26.1025C120.442 25.9202 120.419 25.7949 120.419 25.7266C120.419 25.6696 120.442 25.5272 120.487 25.2993C120.863 25.2537 121.171 25.2082 121.41 25.1626C121.649 25.1056 121.946 25.0202 122.299 24.9062C122.652 24.7923 122.92 24.6328 123.102 24.4277C123.284 24.2113 123.381 23.9549 123.393 23.6587C123.438 22.5308 123.461 21.1636 123.461 19.5571C123.461 19.0216 123.455 18.1102 123.444 16.8228C123.432 15.5353 123.427 14.4074 123.427 13.439C122.777 13.0402 121.684 12.8066 120.146 12.7383C120.1 12.556 120.077 12.4136 120.077 12.311C120.077 12.2427 120.1 12.1174 120.146 11.9351ZM122.829 4.7915C122.829 4.21045 123.034 3.71484 123.444 3.30469C123.865 2.89453 124.361 2.68945 124.931 2.68945C125.512 2.68945 126.007 2.89453 126.417 3.30469C126.828 3.71484 127.033 4.21045 127.033 4.7915C127.033 5.36117 126.828 5.85677 126.417 6.27832C126.007 6.68848 125.512 6.89355 124.931 6.89355C124.361 6.89355 123.865 6.68848 123.444 6.27832C123.034 5.85677 122.829 5.36117 122.829 4.7915ZM151.933 25.2993C152.217 25.2537 152.451 25.2082 152.633 25.1626C152.827 25.1056 153.038 25.0202 153.266 24.9062C153.493 24.7923 153.664 24.6328 153.778 24.4277C153.892 24.2113 153.949 23.9549 153.949 23.6587L153.983 15.541C153.983 13.4788 153.368 12.4478 152.138 12.4478C151.522 12.4478 150.856 12.6414 150.138 13.0288C149.42 13.4162 148.56 13.9972 147.558 14.772V14.9771L147.694 23.6587C147.706 23.9549 147.791 24.2113 147.951 24.4277C148.122 24.6328 148.361 24.7923 148.668 24.9062C148.976 25.0202 149.232 25.1056 149.438 25.1626C149.643 25.2082 149.91 25.2537 150.241 25.2993C150.286 25.5272 150.309 25.681 150.309 25.7607C150.309 25.8519 150.286 25.9658 150.241 26.1025C148.771 26.0342 147.432 26 146.225 26C145.119 26 143.832 26.0342 142.362 26.1025C142.317 25.9202 142.294 25.7835 142.294 25.6924C142.294 25.6126 142.317 25.4816 142.362 25.2993C142.647 25.2537 142.886 25.2082 143.08 25.1626C143.274 25.1056 143.485 25.0202 143.712 24.9062C143.94 24.7923 144.111 24.6328 144.225 24.4277C144.339 24.2113 144.396 23.9549 144.396 23.6587L144.43 15.541C144.43 13.4788 143.815 12.4478 142.584 12.4478C141.969 12.4478 141.314 12.6357 140.619 13.0117C139.936 13.3877 139.075 13.9631 138.039 14.7378C138.039 18.076 138.084 21.0496 138.175 23.6587C138.187 23.9549 138.266 24.2113 138.415 24.4277C138.563 24.6328 138.773 24.7923 139.047 24.9062C139.332 25.0202 139.577 25.1056 139.782 25.1626C139.987 25.2082 140.243 25.2537 140.551 25.2993C140.619 25.436 140.653 25.5785 140.653 25.7266C140.653 25.8405 140.619 25.9658 140.551 26.1025C139.047 26.0342 137.646 26 136.347 26C134.957 26 133.51 26.0342 132.006 26.1025C131.96 25.9202 131.938 25.7949 131.938 25.7266C131.938 25.6696 131.96 25.5272 132.006 25.2993C132.382 25.2537 132.689 25.2082 132.929 25.1626C133.168 25.1056 133.464 25.0202 133.817 24.9062C134.171 24.7923 134.438 24.6328 134.621 24.4277C134.803 24.2113 134.9 23.9549 134.911 23.6587C134.957 22.5308 134.979 21.1636 134.979 19.5571C134.979 19.0216 134.974 18.1102 134.962 16.8228C134.951 15.5353 134.945 14.4074 134.945 13.439C134.296 13.0402 133.202 12.8066 131.664 12.7383C131.618 12.556 131.596 12.4136 131.596 12.311C131.596 12.2427 131.618 12.1174 131.664 11.9351C133.874 11.7072 135.8 11.2401 137.44 10.5337C137.725 10.6476 137.925 10.7957 138.039 10.978V13.6782C138.574 13.1883 139.024 12.7952 139.389 12.499C139.753 12.1914 140.198 11.861 140.722 11.5078C141.257 11.1546 141.787 10.8926 142.311 10.7217C142.847 10.5508 143.393 10.4653 143.952 10.4653C145.068 10.4653 145.9 10.7331 146.447 11.2686C146.994 11.7926 147.335 12.6187 147.472 13.7466C148.053 13.2225 148.515 12.818 148.856 12.5332C149.21 12.2484 149.665 11.918 150.224 11.542C150.782 11.166 151.329 10.8926 151.864 10.7217C152.4 10.5508 152.947 10.4653 153.505 10.4653C154.792 10.4653 155.709 10.8299 156.256 11.5591C156.803 12.2882 157.088 13.4276 157.111 14.9771L157.282 23.6587C157.293 23.9549 157.379 24.2113 157.538 24.4277C157.709 24.6328 157.948 24.7923 158.256 24.9062C158.563 25.0202 158.82 25.1056 159.025 25.1626C159.23 25.2082 159.498 25.2537 159.828 25.2993C159.885 25.5841 159.914 25.738 159.914 25.7607C159.914 25.8177 159.885 25.9316 159.828 26.1025C158.358 26.0342 157.008 26 155.778 26C154.684 26 153.402 26.0342 151.933 26.1025C151.876 25.8747 151.847 25.738 151.847 25.6924C151.847 25.6582 151.876 25.5272 151.933 25.2993Z" fill="#FF0000" fill-opacity="0.95"/>
</svg>
