<svg width="16" height="17" viewBox="0 0 16 17" fill="none" xmlns="http://www.w3.org/2000/svg">
<rect width="16" height="16" transform="translate(0 0.159912)" fill="#FAFAFA"/>
<path d="M13.4551 5.61374L13.4538 5.61497C13.4247 5.64418 13.396 5.65991 13.3333 5.65991H9.33333C9.27064 5.65991 9.24194 5.64418 9.21284 5.61497L9.21161 5.61374C9.1824 5.58464 9.16667 5.55593 9.16667 5.49325V2.82658C9.16667 2.76387 9.18244 2.73458 9.21222 2.7048C9.2412 2.67582 9.2701 2.65991 9.33333 2.65991H13.3333C13.3966 2.65991 13.4255 2.67582 13.4544 2.7048C13.4842 2.73458 13.5 2.76387 13.5 2.82658V5.49325C13.5 5.55593 13.4843 5.58464 13.4551 5.61374ZM2.54617 8.28164L2.54494 8.28041C2.51573 8.25131 2.5 8.2226 2.5 8.15991V2.82658C2.5 2.76387 2.51577 2.73458 2.54555 2.7048C2.57453 2.67582 2.60343 2.65991 2.66667 2.65991H6.66667C6.72948 2.65991 6.75899 2.67564 6.78845 2.7048C6.81761 2.73425 6.83333 2.76376 6.83333 2.82658V8.15991C6.83333 8.22315 6.81743 8.25205 6.78845 8.28103C6.75866 8.31081 6.72937 8.32658 6.66667 8.32658H2.66667C2.60398 8.32658 2.57527 8.31085 2.54617 8.28164ZM9.21284 13.615L9.21161 13.6137C9.1824 13.5846 9.16667 13.5559 9.16667 13.4932V8.15991C9.16667 8.09721 9.18244 8.06792 9.21222 8.03813C9.2412 8.00915 9.2701 7.99325 9.33333 7.99325H13.3333C13.3966 7.99325 13.4255 8.00915 13.4544 8.03813C13.4842 8.06792 13.5 8.09721 13.5 8.15991V13.4932C13.5 13.5559 13.4843 13.5846 13.4551 13.6137L13.4538 13.615C13.4247 13.6442 13.396 13.6599 13.3333 13.6599H9.33333C9.27064 13.6599 9.24194 13.6442 9.21284 13.615ZM2.54617 13.615L2.54494 13.6137C2.51573 13.5846 2.5 13.5559 2.5 13.4932V10.8266C2.5 10.7639 2.51577 10.7346 2.54555 10.7048C2.57453 10.6758 2.60343 10.6599 2.66667 10.6599H6.66667C6.72947 10.6599 6.75898 10.6756 6.78842 10.7048C6.8176 10.7342 6.83333 10.7637 6.83333 10.8266V13.4932C6.83333 13.5565 6.81743 13.5854 6.78845 13.6144C6.75866 13.6441 6.72937 13.6599 6.66667 13.6599H2.66667C2.60398 13.6599 2.57527 13.6442 2.54617 13.615ZM2.83333 7.49325V7.99325H3.33333H6H6.5V7.49325V3.49325V2.99325H6H3.33333H2.83333V3.49325V7.49325ZM9.5 12.8266V13.3266H10H12.6667H13.1667V12.8266V8.82658V8.32658H12.6667H10H9.5V8.82658V12.8266ZM9.5 4.82658V5.32658H10H12.6667H13.1667V4.82658V3.49325V2.99325H12.6667H10H9.5V3.49325V4.82658ZM2.83333 12.8266V13.3266H3.33333H6H6.5V12.8266V11.4932V10.9932H6H3.33333H2.83333V11.4932V12.8266Z" fill="#334C79" stroke="#334C79"/>
</svg>
