<svg width="20" height="20" viewBox="0 0 20 20" fill="none" xmlns="http://www.w3.org/2000/svg">
<path d="M13.2682 3.55164C13.2682 3.88673 13.3275 4.21853 13.4426 4.52811C13.5578 4.83769 13.7266 5.11898 13.9395 5.35592C14.1523 5.59286 14.4049 5.78082 14.683 5.90905C14.9611 6.03728 15.2591 6.10328 15.5601 6.10328C15.861 6.10328 16.1591 6.03728 16.4371 5.90905C16.7152 5.78082 16.9679 5.59286 17.1807 5.35592C17.3935 5.11898 17.5623 4.83769 17.6775 4.52811C17.7927 4.21853 17.852 3.88673 17.852 3.55164C17.852 2.8749 17.6105 2.22588 17.1807 1.74736C16.7509 1.26883 16.1679 1 15.5601 1C14.9522 1 14.3693 1.26883 13.9395 1.74736C13.5097 2.22588 13.2682 2.8749 13.2682 3.55164Z" stroke="#334C79" stroke-linecap="round" stroke-linejoin="round"/>
<path d="M12.1216 11.208V9.93298C12.1216 8.91745 12.4839 7.94352 13.1289 7.22544C13.7739 6.50736 14.6487 6.10394 15.5608 6.10394C16.4729 6.10394 17.3477 6.50736 17.9927 7.22544C18.6377 7.94352 19 8.91745 19 9.93298V11.208M9.47338 11.2112H19M5.23742 6.87132C5.87957 6.87132 6.49543 6.58732 6.9495 6.08178C7.40358 5.57624 7.65867 4.89059 7.65867 4.17565C7.65867 3.46071 7.40358 2.77506 6.9495 2.26952C6.49543 1.76399 5.87957 1.47998 5.23742 1.47998C4.59526 1.47998 3.9794 1.76399 3.52533 2.26952C3.07126 2.77506 2.81616 3.46071 2.81616 4.17565C2.81616 4.89059 3.07126 5.57624 3.52533 6.08178C3.9794 6.58732 4.59526 6.87132 5.23742 6.87132Z" stroke="#334C79" stroke-linecap="round" stroke-linejoin="round"/>
<path d="M9.47333 11.5889C9.47333 10.3379 9.02697 9.13818 8.23244 8.2536C7.43791 7.36902 6.3603 6.87207 5.23667 6.87207C4.11303 6.87207 3.03542 7.36902 2.24089 8.2536C1.44636 9.13818 1 10.3379 1 11.5889V13.6101H2.81682L3.42196 18.9998H7.05278L7.65792 13.6101H9.47333V11.5889Z" stroke="#334C79" stroke-linecap="round" stroke-linejoin="round"/>
</svg>
