<svg width="24" height="25" viewBox="0 0 24 25" fill="none" xmlns="http://www.w3.org/2000/svg">
<path d="M19.3399 14.9899L18.3399 13.3299C18.1299 12.9599 17.9399 12.2599 17.9399 11.8499V9.31991C17.9387 8.20395 17.6216 7.11113 17.0252 6.16789C16.4288 5.22465 15.5776 4.46953 14.5699 3.98992C14.3128 3.53326 13.9376 3.15406 13.4838 2.89195C13.0299 2.62984 12.514 2.49445 11.9899 2.49992C10.8999 2.49992 9.91994 3.08992 9.39994 4.01992C7.44994 4.98992 6.09994 6.99992 6.09994 9.31991V11.8499C6.09994 12.2599 5.90994 12.9599 5.69994 13.3199L4.68994 14.9899C4.28994 15.6599 4.19994 16.3999 4.44994 17.0799C4.68994 17.7499 5.25994 18.2699 5.99994 18.5199C7.93994 19.1799 9.97994 19.4999 12.0199 19.4999C14.0599 19.4999 16.0999 19.1799 18.0399 18.5299C18.7399 18.2999 19.2799 17.7699 19.5399 17.0799C19.7999 16.3899 19.7299 15.6299 19.3399 14.9899ZM14.8299 20.5099C14.6196 21.0921 14.2352 21.5954 13.7289 21.9514C13.2226 22.3074 12.6189 22.4989 11.9999 22.4999C11.2099 22.4999 10.4299 22.1799 9.87994 21.6099C9.55994 21.3099 9.31994 20.9099 9.17994 20.4999C9.30994 20.5199 9.43994 20.5299 9.57994 20.5499C9.80994 20.5799 10.0499 20.6099 10.2899 20.6299C10.8599 20.6799 11.4399 20.7099 12.0199 20.7099C12.5899 20.7099 13.1599 20.6799 13.7199 20.6299C13.9299 20.6099 14.1399 20.5999 14.3399 20.5699L14.8299 20.5099Z" fill="#1F1F1F"/>
<circle cx="16" cy="7.5" r="3.5" fill="#FF4D4D" stroke="white"/>
</svg>
