<svg width="502" height="339" viewBox="0 0 502 339" fill="none" xmlns="http://www.w3.org/2000/svg">
<g filter="url(#filter0_d_895_3294)">
<rect x="4" width="494" height="331" rx="10" fill="white" fill-opacity="0.8" shape-rendering="crispEdges"/>
</g>
<circle cx="316" cy="90" r="10" fill="#334C79"/>
<circle cx="316" cy="127" r="10" fill="#FF0000" fill-opacity="0.95"/>
<path d="M326 164C326 169.523 321.523 174 316 174C310.477 174 306 169.523 306 164C306 158.477 310.477 154 316 154C321.523 154 326 158.477 326 164Z" fill="#8F8F8F" fill-opacity="0.1"/>
<path d="M339.057 94V85.2727H342.006C342.69 85.2727 343.25 85.3963 343.685 85.6435C344.122 85.8878 344.446 86.2188 344.656 86.6364C344.866 87.054 344.972 87.5199 344.972 88.0341C344.972 88.5483 344.866 89.0156 344.656 89.4361C344.449 89.8565 344.128 90.1918 343.693 90.4418C343.259 90.6889 342.702 90.8125 342.023 90.8125H339.909V89.875H341.989C342.457 89.875 342.834 89.794 343.118 89.6321C343.402 89.4702 343.608 89.2514 343.736 88.9759C343.866 88.6974 343.932 88.3835 343.932 88.0341C343.932 87.6847 343.866 87.3722 343.736 87.0966C343.608 86.821 343.401 86.6051 343.114 86.4489C342.827 86.2898 342.446 86.2102 341.972 86.2102H340.114V94H339.057ZM349.126 94.1364C348.536 94.1364 348.017 93.9957 347.571 93.7145C347.128 93.4332 346.781 93.0398 346.531 92.5341C346.284 92.0284 346.161 91.4375 346.161 90.7614C346.161 90.0795 346.284 89.4844 346.531 88.9759C346.781 88.4673 347.128 88.0724 347.571 87.7912C348.017 87.5099 348.536 87.3693 349.126 87.3693C349.717 87.3693 350.234 87.5099 350.678 87.7912C351.124 88.0724 351.47 88.4673 351.717 88.9759C351.967 89.4844 352.092 90.0795 352.092 90.7614C352.092 91.4375 351.967 92.0284 351.717 92.5341C351.47 93.0398 351.124 93.4332 350.678 93.7145C350.234 93.9957 349.717 94.1364 349.126 94.1364ZM349.126 93.233C349.575 93.233 349.945 93.1179 350.234 92.8878C350.524 92.6577 350.739 92.3551 350.878 91.9801C351.017 91.6051 351.087 91.1989 351.087 90.7614C351.087 90.3239 351.017 89.9162 350.878 89.5384C350.739 89.1605 350.524 88.8551 350.234 88.6222C349.945 88.3892 349.575 88.2727 349.126 88.2727C348.678 88.2727 348.308 88.3892 348.018 88.6222C347.729 88.8551 347.514 89.1605 347.375 89.5384C347.236 89.9162 347.166 90.3239 347.166 90.7614C347.166 91.1989 347.236 91.6051 347.375 91.9801C347.514 92.3551 347.729 92.6577 348.018 92.8878C348.308 93.1179 348.678 93.233 349.126 93.233ZM353.627 94V87.4545H354.599V88.4432H354.667C354.787 88.1193 355.002 87.8565 355.315 87.6548C355.627 87.4531 355.98 87.3523 356.372 87.3523C356.446 87.3523 356.538 87.3537 356.649 87.3565C356.76 87.3594 356.843 87.3636 356.9 87.3693V88.392C356.866 88.3835 356.788 88.3707 356.666 88.3537C356.547 88.3338 356.42 88.3239 356.287 88.3239C355.968 88.3239 355.684 88.3906 355.434 88.5241C355.187 88.6548 354.991 88.8366 354.846 89.0696C354.704 89.2997 354.633 89.5625 354.633 89.858V94H353.627ZM361.349 87.4545V88.3068H357.957V87.4545H361.349ZM358.946 85.8864H359.951V92.125C359.951 92.4091 359.993 92.6222 360.075 92.7642C360.16 92.9034 360.268 92.9972 360.399 93.0455C360.532 93.0909 360.673 93.1136 360.821 93.1136C360.931 93.1136 361.022 93.108 361.093 93.0966C361.164 93.0824 361.221 93.071 361.264 93.0625L361.468 93.9659C361.4 93.9915 361.305 94.017 361.183 94.0426C361.061 94.071 360.906 94.0852 360.718 94.0852C360.434 94.0852 360.156 94.0241 359.883 93.902C359.613 93.7798 359.389 93.5938 359.21 93.3438C359.034 93.0938 358.946 92.7784 358.946 92.3977V85.8864ZM365.536 94.1364C364.905 94.1364 364.361 93.9972 363.904 93.7188C363.449 93.4375 363.098 93.0455 362.851 92.5426C362.607 92.0369 362.485 91.4489 362.485 90.7784C362.485 90.108 362.607 89.517 362.851 89.0057C363.098 88.4915 363.442 88.0909 363.882 87.804C364.326 87.5142 364.843 87.3693 365.434 87.3693C365.775 87.3693 366.111 87.4261 366.444 87.5398C366.776 87.6534 367.078 87.8381 367.351 88.0938C367.624 88.3466 367.841 88.6818 368.003 89.0994C368.165 89.517 368.246 90.0312 368.246 90.642V91.0682H363.201V90.1989H367.223C367.223 89.8295 367.15 89.5 367.002 89.2102C366.857 88.9205 366.65 88.6918 366.38 88.5241C366.113 88.3565 365.797 88.2727 365.434 88.2727C365.033 88.2727 364.686 88.3722 364.394 88.571C364.104 88.767 363.881 89.0227 363.725 89.3381C363.569 89.6534 363.49 89.9915 363.49 90.3523V90.9318C363.49 91.4261 363.576 91.8452 363.746 92.1889C363.919 92.5298 364.159 92.7898 364.466 92.9688C364.773 93.1449 365.13 93.233 365.536 93.233C365.8 93.233 366.039 93.196 366.252 93.1222C366.468 93.0455 366.654 92.9318 366.81 92.7812C366.966 92.6278 367.087 92.4375 367.172 92.2102L368.144 92.483C368.042 92.8125 367.87 93.1023 367.628 93.3523C367.387 93.5994 367.088 93.7926 366.733 93.9318C366.378 94.0682 365.979 94.1364 365.536 94.1364ZM373.901 91.3239V87.4545H374.907V94H373.901V92.892H373.833C373.679 93.2244 373.441 93.5071 373.117 93.7401C372.793 93.9702 372.384 94.0852 371.89 94.0852C371.48 94.0852 371.117 93.9957 370.799 93.8168C370.48 93.6349 370.23 93.3622 370.049 92.9986C369.867 92.6321 369.776 92.1705 369.776 91.6136V87.4545H370.782V91.5455C370.782 92.0227 370.915 92.4034 371.182 92.6875C371.452 92.9716 371.796 93.1136 372.213 93.1136C372.463 93.1136 372.718 93.0497 372.976 92.9219C373.238 92.794 373.456 92.598 373.632 92.3338C373.811 92.0696 373.901 91.733 373.901 91.3239ZM376.749 94V87.4545H377.72V88.4432H377.788C377.908 88.1193 378.124 87.8565 378.436 87.6548C378.749 87.4531 379.101 87.3523 379.493 87.3523C379.567 87.3523 379.659 87.3537 379.77 87.3565C379.881 87.3594 379.964 87.3636 380.021 87.3693V88.392C379.987 88.3835 379.909 88.3707 379.787 88.3537C379.668 88.3338 379.541 88.3239 379.408 88.3239C379.089 88.3239 378.805 88.3906 378.555 88.5241C378.308 88.6548 378.112 88.8366 377.967 89.0696C377.825 89.2997 377.754 89.5625 377.754 89.858V94H376.749Z" fill="black" fill-opacity="0.9"/>
<path d="M339.057 132V123.273H342.108C342.716 123.273 343.217 123.378 343.612 123.588C344.007 123.795 344.301 124.075 344.494 124.428C344.688 124.777 344.784 125.165 344.784 125.591C344.784 125.966 344.717 126.276 344.584 126.52C344.453 126.764 344.28 126.957 344.064 127.099C343.851 127.241 343.619 127.347 343.369 127.415V127.5C343.636 127.517 343.905 127.611 344.175 127.781C344.445 127.952 344.67 128.196 344.852 128.514C345.034 128.832 345.125 129.222 345.125 129.682C345.125 130.119 345.026 130.513 344.827 130.862C344.628 131.212 344.314 131.489 343.885 131.693C343.456 131.898 342.898 132 342.21 132H339.057ZM340.114 131.062H342.21C342.901 131.062 343.391 130.929 343.68 130.662C343.973 130.392 344.119 130.065 344.119 129.682C344.119 129.386 344.044 129.114 343.893 128.864C343.743 128.611 343.528 128.409 343.25 128.259C342.972 128.105 342.642 128.028 342.261 128.028H340.114V131.062ZM340.114 127.108H342.074C342.392 127.108 342.679 127.045 342.935 126.92C343.193 126.795 343.398 126.619 343.548 126.392C343.702 126.165 343.778 125.898 343.778 125.591C343.778 125.207 343.645 124.882 343.378 124.615C343.111 124.345 342.688 124.21 342.108 124.21H340.114V127.108ZM348.651 132.153C348.237 132.153 347.86 132.075 347.522 131.919C347.184 131.76 346.915 131.531 346.717 131.233C346.518 130.932 346.418 130.568 346.418 130.142C346.418 129.767 346.492 129.463 346.64 129.23C346.788 128.994 346.985 128.81 347.232 128.676C347.479 128.543 347.752 128.443 348.05 128.378C348.352 128.31 348.654 128.256 348.958 128.216C349.356 128.165 349.678 128.126 349.925 128.101C350.175 128.072 350.357 128.026 350.471 127.96C350.587 127.895 350.646 127.781 350.646 127.619V127.585C350.646 127.165 350.531 126.838 350.3 126.605C350.073 126.372 349.728 126.256 349.265 126.256C348.785 126.256 348.408 126.361 348.136 126.571C347.863 126.781 347.671 127.006 347.56 127.244L346.606 126.903C346.776 126.506 347.004 126.196 347.288 125.974C347.575 125.75 347.887 125.594 348.225 125.506C348.566 125.415 348.901 125.369 349.231 125.369C349.441 125.369 349.683 125.395 349.955 125.446C350.231 125.494 350.496 125.595 350.752 125.749C351.011 125.902 351.225 126.134 351.396 126.443C351.566 126.753 351.651 127.168 351.651 127.688V132H350.646V131.114H350.594C350.526 131.256 350.413 131.408 350.254 131.57C350.094 131.732 349.883 131.869 349.619 131.983C349.354 132.097 349.032 132.153 348.651 132.153ZM348.805 131.25C349.202 131.25 349.538 131.172 349.81 131.016C350.086 130.859 350.293 130.658 350.433 130.411C350.575 130.163 350.646 129.903 350.646 129.631V128.71C350.603 128.761 350.509 128.808 350.364 128.851C350.222 128.891 350.058 128.926 349.87 128.957C349.685 128.986 349.505 129.011 349.329 129.034C349.156 129.054 349.015 129.071 348.907 129.085C348.646 129.119 348.401 129.175 348.174 129.251C347.95 129.325 347.768 129.437 347.629 129.588C347.492 129.736 347.424 129.937 347.424 130.193C347.424 130.543 347.553 130.807 347.812 130.986C348.073 131.162 348.404 131.25 348.805 131.25ZM354.493 128.062V132H353.487V125.455H354.458V126.477H354.544C354.697 126.145 354.93 125.878 355.243 125.676C355.555 125.472 355.958 125.369 356.453 125.369C356.896 125.369 357.284 125.46 357.616 125.642C357.949 125.821 358.207 126.094 358.392 126.46C358.576 126.824 358.669 127.284 358.669 127.841V132H357.663V127.909C357.663 127.395 357.529 126.994 357.262 126.707C356.995 126.418 356.629 126.273 356.163 126.273C355.842 126.273 355.555 126.342 355.302 126.482C355.052 126.621 354.855 126.824 354.71 127.091C354.565 127.358 354.493 127.682 354.493 128.062ZM364.972 134.455V130.994H364.887C364.813 131.114 364.708 131.264 364.572 131.446C364.435 131.625 364.241 131.786 363.988 131.928C363.735 132.067 363.398 132.136 362.978 132.136C362.433 132.136 361.951 131.999 361.533 131.723C361.116 131.445 360.789 131.053 360.553 130.547C360.317 130.038 360.2 129.438 360.2 128.744C360.2 128.057 360.317 127.46 360.553 126.955C360.789 126.449 361.117 126.058 361.538 125.783C361.958 125.507 362.444 125.369 362.995 125.369C363.421 125.369 363.758 125.44 364.005 125.582C364.255 125.722 364.445 125.881 364.576 126.06C364.71 126.236 364.813 126.381 364.887 126.494H365.006V125.455H365.978V134.455H364.972ZM363.114 131.233C363.518 131.233 363.859 131.128 364.137 130.918C364.415 130.705 364.627 130.411 364.772 130.036C364.917 129.658 364.989 129.222 364.989 128.727C364.989 128.239 364.918 127.811 364.776 127.445C364.634 127.075 364.424 126.788 364.146 126.584C363.867 126.376 363.523 126.273 363.114 126.273C362.688 126.273 362.333 126.382 362.049 126.601C361.768 126.817 361.556 127.111 361.414 127.483C361.275 127.852 361.205 128.267 361.205 128.727C361.205 129.193 361.276 129.616 361.418 129.997C361.563 130.375 361.776 130.676 362.058 130.901C362.342 131.122 362.694 131.233 363.114 131.233ZM371.944 129.324V125.455H372.95V132H371.944V130.892H371.876C371.722 131.224 371.484 131.507 371.16 131.74C370.836 131.97 370.427 132.085 369.933 132.085C369.523 132.085 369.16 131.996 368.842 131.817C368.523 131.635 368.273 131.362 368.092 130.999C367.91 130.632 367.819 130.17 367.819 129.614V125.455H368.825V129.545C368.825 130.023 368.958 130.403 369.225 130.688C369.495 130.972 369.839 131.114 370.256 131.114C370.506 131.114 370.761 131.05 371.019 130.922C371.281 130.794 371.499 130.598 371.675 130.334C371.854 130.07 371.944 129.733 371.944 129.324ZM377.536 132.136C376.905 132.136 376.361 131.997 375.904 131.719C375.449 131.438 375.098 131.045 374.851 130.543C374.607 130.037 374.485 129.449 374.485 128.778C374.485 128.108 374.607 127.517 374.851 127.006C375.098 126.491 375.442 126.091 375.882 125.804C376.326 125.514 376.843 125.369 377.434 125.369C377.775 125.369 378.111 125.426 378.444 125.54C378.776 125.653 379.078 125.838 379.351 126.094C379.624 126.347 379.841 126.682 380.003 127.099C380.165 127.517 380.246 128.031 380.246 128.642V129.068H375.201V128.199H379.223C379.223 127.83 379.15 127.5 379.002 127.21C378.857 126.92 378.65 126.692 378.38 126.524C378.113 126.357 377.797 126.273 377.434 126.273C377.033 126.273 376.686 126.372 376.394 126.571C376.104 126.767 375.881 127.023 375.725 127.338C375.569 127.653 375.49 127.991 375.49 128.352V128.932C375.49 129.426 375.576 129.845 375.746 130.189C375.919 130.53 376.159 130.79 376.466 130.969C376.773 131.145 377.13 131.233 377.536 131.233C377.8 131.233 378.039 131.196 378.252 131.122C378.468 131.045 378.654 130.932 378.81 130.781C378.966 130.628 379.087 130.437 379.172 130.21L380.144 130.483C380.042 130.812 379.87 131.102 379.628 131.352C379.387 131.599 379.088 131.793 378.733 131.932C378.378 132.068 377.979 132.136 377.536 132.136Z" fill="black" fill-opacity="0.9"/>
<path d="M346.08 160H345.023C344.96 159.696 344.851 159.429 344.695 159.199C344.541 158.969 344.354 158.776 344.132 158.619C343.913 158.46 343.67 158.341 343.403 158.261C343.136 158.182 342.858 158.142 342.568 158.142C342.04 158.142 341.561 158.276 341.132 158.543C340.706 158.81 340.366 159.203 340.114 159.723C339.864 160.243 339.739 160.881 339.739 161.636C339.739 162.392 339.864 163.03 340.114 163.55C340.366 164.07 340.706 164.463 341.132 164.73C341.561 164.997 342.04 165.131 342.568 165.131C342.858 165.131 343.136 165.091 343.403 165.011C343.67 164.932 343.913 164.814 344.132 164.658C344.354 164.499 344.541 164.304 344.695 164.074C344.851 163.841 344.96 163.574 345.023 163.273H346.08C346 163.719 345.855 164.118 345.645 164.47C345.435 164.822 345.173 165.122 344.861 165.369C344.548 165.614 344.197 165.8 343.808 165.928C343.422 166.055 343.009 166.119 342.568 166.119C341.824 166.119 341.162 165.938 340.582 165.574C340.003 165.21 339.547 164.693 339.214 164.023C338.882 163.352 338.716 162.557 338.716 161.636C338.716 160.716 338.882 159.92 339.214 159.25C339.547 158.58 340.003 158.062 340.582 157.699C341.162 157.335 341.824 157.153 342.568 157.153C343.009 157.153 343.422 157.217 343.808 157.345C344.197 157.473 344.548 157.661 344.861 157.908C345.173 158.152 345.435 158.45 345.645 158.803C345.855 159.152 346 159.551 346.08 160ZM350.31 166.136C349.719 166.136 349.201 165.996 348.755 165.714C348.311 165.433 347.965 165.04 347.715 164.534C347.468 164.028 347.344 163.437 347.344 162.761C347.344 162.08 347.468 161.484 347.715 160.976C347.965 160.467 348.311 160.072 348.755 159.791C349.201 159.51 349.719 159.369 350.31 159.369C350.901 159.369 351.418 159.51 351.861 159.791C352.307 160.072 352.654 160.467 352.901 160.976C353.151 161.484 353.276 162.08 353.276 162.761C353.276 163.437 353.151 164.028 352.901 164.534C352.654 165.04 352.307 165.433 351.861 165.714C351.418 165.996 350.901 166.136 350.31 166.136ZM350.31 165.233C350.759 165.233 351.128 165.118 351.418 164.888C351.708 164.658 351.922 164.355 352.061 163.98C352.201 163.605 352.27 163.199 352.27 162.761C352.27 162.324 352.201 161.916 352.061 161.538C351.922 161.161 351.708 160.855 351.418 160.622C351.128 160.389 350.759 160.273 350.31 160.273C349.861 160.273 349.492 160.389 349.202 160.622C348.912 160.855 348.698 161.161 348.559 161.538C348.419 161.916 348.35 162.324 348.35 162.761C348.35 163.199 348.419 163.605 348.559 163.98C348.698 164.355 348.912 164.658 349.202 164.888C349.492 165.118 349.861 165.233 350.31 165.233ZM354.811 166V159.455H355.783V160.477H355.868C356.004 160.128 356.224 159.857 356.528 159.663C356.832 159.467 357.197 159.369 357.624 159.369C358.055 159.369 358.415 159.467 358.702 159.663C358.991 159.857 359.217 160.128 359.379 160.477H359.447C359.615 160.139 359.866 159.871 360.202 159.672C360.537 159.47 360.939 159.369 361.408 159.369C361.993 159.369 362.472 159.553 362.844 159.919C363.216 160.283 363.402 160.849 363.402 161.619V166H362.396V161.619C362.396 161.136 362.264 160.791 362 160.584C361.736 160.376 361.425 160.273 361.067 160.273C360.607 160.273 360.25 160.412 359.997 160.69C359.744 160.966 359.618 161.315 359.618 161.739V166H358.595V161.517C358.595 161.145 358.474 160.845 358.233 160.618C357.991 160.388 357.68 160.273 357.3 160.273C357.038 160.273 356.794 160.342 356.567 160.482C356.342 160.621 356.161 160.814 356.021 161.061C355.885 161.305 355.817 161.588 355.817 161.909V166H354.811ZM365.241 166V159.455H366.212V160.477H366.298C366.434 160.128 366.654 159.857 366.958 159.663C367.262 159.467 367.627 159.369 368.053 159.369C368.485 159.369 368.844 159.467 369.131 159.663C369.421 159.857 369.647 160.128 369.809 160.477H369.877C370.045 160.139 370.296 159.871 370.631 159.672C370.967 159.47 371.369 159.369 371.837 159.369C372.423 159.369 372.901 159.553 373.273 159.919C373.646 160.283 373.832 160.849 373.832 161.619V166H372.826V161.619C372.826 161.136 372.694 160.791 372.43 160.584C372.165 160.376 371.854 160.273 371.496 160.273C371.036 160.273 370.68 160.412 370.427 160.69C370.174 160.966 370.048 161.315 370.048 161.739V166H369.025V161.517C369.025 161.145 368.904 160.845 368.663 160.618C368.421 160.388 368.11 160.273 367.729 160.273C367.468 160.273 367.224 160.342 366.996 160.482C366.772 160.621 366.59 160.814 366.451 161.061C366.315 161.305 366.246 161.588 366.246 161.909V166H365.241ZM378.415 166.136C377.784 166.136 377.24 165.997 376.783 165.719C376.328 165.438 375.977 165.045 375.73 164.543C375.486 164.037 375.364 163.449 375.364 162.778C375.364 162.108 375.486 161.517 375.73 161.006C375.977 160.491 376.321 160.091 376.761 159.804C377.205 159.514 377.722 159.369 378.312 159.369C378.653 159.369 378.99 159.426 379.322 159.54C379.655 159.653 379.957 159.838 380.23 160.094C380.503 160.347 380.72 160.682 380.882 161.099C381.044 161.517 381.125 162.031 381.125 162.642V163.068H376.08V162.199H380.102C380.102 161.83 380.028 161.5 379.881 161.21C379.736 160.92 379.528 160.692 379.259 160.524C378.991 160.357 378.676 160.273 378.312 160.273C377.912 160.273 377.565 160.372 377.273 160.571C376.983 160.767 376.76 161.023 376.604 161.338C376.447 161.653 376.369 161.991 376.369 162.352V162.932C376.369 163.426 376.455 163.845 376.625 164.189C376.798 164.53 377.038 164.79 377.345 164.969C377.652 165.145 378.009 165.233 378.415 165.233C378.679 165.233 378.918 165.196 379.131 165.122C379.347 165.045 379.533 164.932 379.689 164.781C379.845 164.628 379.966 164.437 380.051 164.21L381.023 164.483C380.92 164.812 380.749 165.102 380.507 165.352C380.266 165.599 379.967 165.793 379.612 165.932C379.257 166.068 378.858 166.136 378.415 166.136ZM382.655 166V159.455H383.626V160.443H383.695C383.814 160.119 384.03 159.857 384.342 159.655C384.655 159.453 385.007 159.352 385.399 159.352C385.473 159.352 385.565 159.354 385.676 159.357C385.787 159.359 385.871 159.364 385.928 159.369V160.392C385.893 160.384 385.815 160.371 385.693 160.354C385.574 160.334 385.447 160.324 385.314 160.324C384.996 160.324 384.712 160.391 384.462 160.524C384.214 160.655 384.018 160.837 383.874 161.07C383.732 161.3 383.661 161.562 383.661 161.858V166H382.655ZM389.58 166.136C388.966 166.136 388.438 165.991 387.994 165.702C387.551 165.412 387.21 165.013 386.972 164.504C386.733 163.996 386.614 163.415 386.614 162.761C386.614 162.097 386.736 161.51 386.98 161.001C387.227 160.49 387.571 160.091 388.011 159.804C388.455 159.514 388.972 159.369 389.562 159.369C390.023 159.369 390.438 159.455 390.807 159.625C391.176 159.795 391.479 160.034 391.714 160.341C391.95 160.648 392.097 161.006 392.153 161.415H391.148C391.071 161.116 390.901 160.852 390.636 160.622C390.375 160.389 390.023 160.273 389.58 160.273C389.188 160.273 388.844 160.375 388.548 160.58C388.256 160.781 388.027 161.067 387.862 161.436C387.7 161.803 387.619 162.233 387.619 162.727C387.619 163.233 387.699 163.673 387.858 164.048C388.02 164.423 388.247 164.714 388.54 164.922C388.835 165.129 389.182 165.233 389.58 165.233C389.841 165.233 390.078 165.188 390.291 165.097C390.504 165.006 390.685 164.875 390.832 164.705C390.98 164.534 391.085 164.33 391.148 164.091H392.153C392.097 164.477 391.956 164.825 391.732 165.135C391.51 165.442 391.216 165.686 390.849 165.868C390.486 166.047 390.063 166.136 389.58 166.136ZM389.102 165.966H389.938L389.869 166.307C390.091 166.341 390.294 166.433 390.479 166.584C390.663 166.737 390.756 166.98 390.756 167.312C390.756 167.679 390.604 167.977 390.3 168.207C389.999 168.44 389.554 168.557 388.966 168.557L388.932 167.892C389.196 167.892 389.415 167.849 389.588 167.764C389.764 167.682 389.852 167.543 389.852 167.347C389.852 167.151 389.78 167.017 389.635 166.946C389.49 166.875 389.256 166.827 388.932 166.801L389.102 165.966ZM395.55 166.153C395.135 166.153 394.759 166.075 394.42 165.919C394.082 165.76 393.814 165.531 393.615 165.233C393.416 164.932 393.317 164.568 393.317 164.142C393.317 163.767 393.391 163.463 393.538 163.23C393.686 162.994 393.884 162.81 394.131 162.676C394.378 162.543 394.651 162.443 394.949 162.378C395.25 162.31 395.553 162.256 395.857 162.216C396.254 162.165 396.577 162.126 396.824 162.101C397.074 162.072 397.256 162.026 397.369 161.96C397.486 161.895 397.544 161.781 397.544 161.619V161.585C397.544 161.165 397.429 160.838 397.199 160.605C396.972 160.372 396.626 160.256 396.163 160.256C395.683 160.256 395.307 160.361 395.034 160.571C394.761 160.781 394.57 161.006 394.459 161.244L393.504 160.903C393.675 160.506 393.902 160.196 394.186 159.974C394.473 159.75 394.786 159.594 395.124 159.506C395.464 159.415 395.8 159.369 396.129 159.369C396.339 159.369 396.581 159.395 396.854 159.446C397.129 159.494 397.395 159.595 397.651 159.749C397.909 159.902 398.124 160.134 398.294 160.443C398.464 160.753 398.55 161.168 398.55 161.688V166H397.544V165.114H397.493C397.425 165.256 397.311 165.408 397.152 165.57C396.993 165.732 396.781 165.869 396.517 165.983C396.253 166.097 395.93 166.153 395.55 166.153ZM395.703 165.25C396.101 165.25 396.436 165.172 396.709 165.016C396.984 164.859 397.192 164.658 397.331 164.411C397.473 164.163 397.544 163.903 397.544 163.631V162.71C397.501 162.761 397.408 162.808 397.263 162.851C397.121 162.891 396.956 162.926 396.768 162.957C396.584 162.986 396.403 163.011 396.227 163.034C396.054 163.054 395.913 163.071 395.805 163.085C395.544 163.119 395.3 163.175 395.072 163.251C394.848 163.325 394.666 163.437 394.527 163.588C394.391 163.736 394.322 163.937 394.322 164.193C394.322 164.543 394.452 164.807 394.71 164.986C394.972 165.162 395.303 165.25 395.703 165.25ZM401.391 162.062V166H400.385V159.455H401.357V160.477H401.442C401.596 160.145 401.828 159.878 402.141 159.676C402.453 159.472 402.857 159.369 403.351 159.369C403.794 159.369 404.182 159.46 404.515 159.642C404.847 159.821 405.105 160.094 405.29 160.46C405.475 160.824 405.567 161.284 405.567 161.841V166H404.561V161.909C404.561 161.395 404.428 160.994 404.161 160.707C403.894 160.418 403.527 160.273 403.061 160.273C402.74 160.273 402.453 160.342 402.201 160.482C401.951 160.621 401.753 160.824 401.608 161.091C401.463 161.358 401.391 161.682 401.391 162.062ZM410.251 159.455V160.307H406.859V159.455H410.251ZM407.848 157.886H408.854V164.125C408.854 164.409 408.895 164.622 408.977 164.764C409.063 164.903 409.17 164.997 409.301 165.045C409.435 165.091 409.575 165.114 409.723 165.114C409.834 165.114 409.925 165.108 409.996 165.097C410.067 165.082 410.124 165.071 410.166 165.062L410.371 165.966C410.303 165.991 410.207 166.017 410.085 166.043C409.963 166.071 409.808 166.085 409.621 166.085C409.337 166.085 409.058 166.024 408.786 165.902C408.516 165.78 408.291 165.594 408.112 165.344C407.936 165.094 407.848 164.778 407.848 164.398V157.886Z" fill="black" fill-opacity="0.9"/>
<path d="M94.598 308V293.455H99.7827C100.91 293.455 101.845 293.649 102.588 294.037C103.336 294.425 103.895 294.963 104.264 295.649C104.634 296.331 104.818 297.119 104.818 298.014C104.818 298.904 104.631 299.688 104.257 300.365C103.888 301.037 103.329 301.561 102.581 301.935C101.838 302.309 100.902 302.496 99.7756 302.496H95.848V300.607H99.5767C100.287 300.607 100.865 300.505 101.31 300.301C101.759 300.098 102.089 299.802 102.297 299.413C102.505 299.025 102.609 298.559 102.609 298.014C102.609 297.465 102.503 296.989 102.29 296.587C102.081 296.184 101.752 295.876 101.303 295.663C100.857 295.446 100.273 295.337 99.5483 295.337H96.7926V308H94.598ZM101.778 301.438L105.372 308H102.872L99.3494 301.438H101.778ZM111.883 308.22C110.808 308.22 109.883 307.991 109.106 307.531C108.334 307.067 107.738 306.416 107.316 305.578C106.9 304.735 106.691 303.748 106.691 302.616C106.691 301.499 106.9 300.514 107.316 299.662C107.738 298.81 108.325 298.144 109.078 297.666C109.835 297.188 110.721 296.949 111.734 296.949C112.35 296.949 112.946 297.051 113.524 297.254C114.101 297.458 114.62 297.777 115.079 298.213C115.538 298.649 115.901 299.214 116.166 299.911C116.431 300.602 116.564 301.442 116.564 302.432V303.185H107.892V301.594H114.483C114.483 301.035 114.369 300.54 114.142 300.109C113.914 299.674 113.595 299.33 113.183 299.08C112.776 298.829 112.297 298.703 111.748 298.703C111.152 298.703 110.631 298.85 110.186 299.143C109.745 299.432 109.404 299.811 109.163 300.28C108.926 300.744 108.808 301.248 108.808 301.793V303.036C108.808 303.765 108.936 304.385 109.191 304.896C109.452 305.408 109.814 305.798 110.278 306.068C110.742 306.333 111.284 306.466 111.904 306.466C112.307 306.466 112.674 306.409 113.005 306.295C113.337 306.177 113.623 306.002 113.865 305.77C114.106 305.538 114.291 305.251 114.419 304.911L116.429 305.273C116.268 305.865 115.979 306.383 115.562 306.828C115.15 307.268 114.632 307.612 114.007 307.858C113.386 308.099 112.679 308.22 111.883 308.22ZM110.775 295.635L112.437 292.361H114.674L112.473 295.635H110.775ZM118.92 312.091V297.091H120.994V298.859H121.171C121.294 298.632 121.472 298.369 121.704 298.071C121.936 297.773 122.258 297.512 122.67 297.29C123.082 297.062 123.626 296.949 124.303 296.949C125.184 296.949 125.97 297.171 126.661 297.616C127.353 298.062 127.895 298.703 128.288 299.541C128.685 300.379 128.884 301.388 128.884 302.567C128.884 303.746 128.688 304.757 128.295 305.599C127.902 306.437 127.362 307.084 126.675 307.538C125.989 307.988 125.205 308.213 124.325 308.213C123.662 308.213 123.12 308.102 122.698 307.879C122.281 307.657 121.955 307.396 121.718 307.098C121.481 306.8 121.299 306.535 121.171 306.303H121.043V312.091H118.92ZM121.001 302.545C121.001 303.312 121.112 303.985 121.335 304.562C121.557 305.14 121.879 305.592 122.3 305.919C122.722 306.241 123.238 306.402 123.849 306.402C124.483 306.402 125.013 306.234 125.44 305.898C125.866 305.557 126.188 305.095 126.406 304.513C126.628 303.93 126.739 303.275 126.739 302.545C126.739 301.826 126.63 301.179 126.413 300.607C126.2 300.034 125.878 299.581 125.447 299.25C125.021 298.919 124.488 298.753 123.849 298.753C123.233 298.753 122.712 298.911 122.286 299.229C121.865 299.546 121.545 299.989 121.327 300.557C121.11 301.125 121.001 301.788 121.001 302.545ZM134.438 308.241C133.747 308.241 133.122 308.114 132.563 307.858C132.004 307.598 131.562 307.221 131.235 306.729C130.913 306.236 130.752 305.633 130.752 304.918C130.752 304.302 130.871 303.795 131.107 303.398C131.344 303 131.664 302.685 132.066 302.453C132.469 302.221 132.918 302.046 133.415 301.928C133.913 301.809 134.419 301.719 134.935 301.658C135.589 301.582 136.119 301.52 136.526 301.473C136.933 301.421 137.229 301.338 137.414 301.224C137.599 301.111 137.691 300.926 137.691 300.67V300.621C137.691 300 137.516 299.52 137.165 299.179C136.82 298.838 136.304 298.668 135.617 298.668C134.902 298.668 134.339 298.826 133.927 299.143C133.52 299.456 133.238 299.804 133.082 300.188L131.086 299.733C131.323 299.07 131.668 298.535 132.123 298.128C132.582 297.716 133.11 297.418 133.707 297.233C134.303 297.044 134.931 296.949 135.589 296.949C136.024 296.949 136.486 297.001 136.974 297.105C137.466 297.205 137.925 297.389 138.352 297.659C138.782 297.929 139.135 298.315 139.41 298.817C139.684 299.314 139.822 299.96 139.822 300.756V308H137.748V306.509H137.663C137.525 306.783 137.319 307.053 137.045 307.318C136.77 307.583 136.417 307.804 135.987 307.979C135.556 308.154 135.04 308.241 134.438 308.241ZM134.9 306.537C135.487 306.537 135.989 306.421 136.406 306.189C136.827 305.957 137.147 305.654 137.364 305.28C137.587 304.901 137.698 304.496 137.698 304.065V302.659C137.622 302.735 137.476 302.806 137.258 302.872C137.045 302.934 136.801 302.988 136.526 303.036C136.252 303.078 135.984 303.118 135.724 303.156C135.463 303.189 135.246 303.218 135.07 303.241C134.658 303.294 134.282 303.381 133.941 303.504C133.605 303.627 133.335 303.805 133.131 304.037C132.933 304.264 132.833 304.567 132.833 304.946C132.833 305.472 133.027 305.869 133.415 306.139C133.804 306.404 134.299 306.537 134.9 306.537ZM142.65 308V297.091H144.703V298.824H144.816C145.015 298.237 145.366 297.775 145.868 297.439C146.374 297.098 146.947 296.928 147.586 296.928C147.719 296.928 147.875 296.932 148.055 296.942C148.24 296.951 148.384 296.963 148.488 296.977V299.009C148.403 298.985 148.252 298.959 148.034 298.93C147.816 298.897 147.598 298.881 147.38 298.881C146.878 298.881 146.431 298.987 146.038 299.2C145.65 299.409 145.342 299.7 145.115 300.074C144.887 300.443 144.774 300.865 144.774 301.338V308H142.65ZM156.063 297.091V298.795H150.104V297.091H156.063ZM151.702 294.477H153.826V304.797C153.826 305.209 153.887 305.519 154.01 305.727C154.133 305.931 154.292 306.071 154.486 306.146C154.685 306.217 154.9 306.253 155.132 306.253C155.303 306.253 155.452 306.241 155.58 306.217C155.708 306.194 155.807 306.175 155.878 306.161L156.262 307.915C156.139 307.962 155.963 308.009 155.736 308.057C155.509 308.109 155.225 308.137 154.884 308.142C154.325 308.152 153.804 308.052 153.321 307.844C152.838 307.635 152.448 307.313 152.15 306.878C151.851 306.442 151.702 305.895 151.702 305.237V294.477ZM158.412 308V297.091H160.536V308H158.412ZM159.484 295.408C159.115 295.408 158.798 295.285 158.533 295.038C158.272 294.787 158.142 294.489 158.142 294.143C158.142 293.793 158.272 293.495 158.533 293.249C158.798 292.998 159.115 292.872 159.484 292.872C159.854 292.872 160.169 292.998 160.429 293.249C160.694 293.495 160.827 293.793 160.827 294.143C160.827 294.489 160.694 294.787 160.429 295.038C160.169 295.285 159.854 295.408 159.484 295.408ZM168.485 297.091V298.795H162.526V297.091H168.485ZM164.124 294.477H166.248V304.797C166.248 305.209 166.309 305.519 166.432 305.727C166.555 305.931 166.714 306.071 166.908 306.146C167.107 306.217 167.322 306.253 167.554 306.253C167.725 306.253 167.874 306.241 168.002 306.217C168.13 306.194 168.229 306.175 168.3 306.161L168.684 307.915C168.56 307.962 168.385 308.009 168.158 308.057C167.931 308.109 167.647 308.137 167.306 308.142C166.747 308.152 166.226 308.052 165.743 307.844C165.26 307.635 164.87 307.313 164.571 306.878C164.273 306.442 164.124 305.895 164.124 305.237V294.477ZM170.834 308V297.091H172.957V308H170.834ZM171.906 295.408C171.537 295.408 171.22 295.285 170.955 295.038C170.694 294.787 170.564 294.489 170.564 294.143C170.564 293.793 170.694 293.495 170.955 293.249C171.22 292.998 171.537 292.872 171.906 292.872C172.276 292.872 172.59 292.998 172.851 293.249C173.116 293.495 173.249 293.793 173.249 294.143C173.249 294.489 173.116 294.787 172.851 295.038C172.59 295.285 172.276 295.408 171.906 295.408ZM180.409 308.22C179.387 308.22 178.494 307.986 177.732 307.517C176.97 307.048 176.378 306.393 175.956 305.55C175.535 304.707 175.324 303.722 175.324 302.595C175.324 301.464 175.535 300.474 175.956 299.626C176.378 298.779 176.97 298.121 177.732 297.652C178.494 297.183 179.387 296.949 180.409 296.949C181.432 296.949 182.325 297.183 183.087 297.652C183.849 298.121 184.441 298.779 184.863 299.626C185.284 300.474 185.495 301.464 185.495 302.595C185.495 303.722 185.284 304.707 184.863 305.55C184.441 306.393 183.849 307.048 183.087 307.517C182.325 307.986 181.432 308.22 180.409 308.22ZM180.417 306.438C181.079 306.438 181.629 306.262 182.064 305.912C182.5 305.562 182.822 305.095 183.03 304.513C183.243 303.93 183.35 303.289 183.35 302.588C183.35 301.892 183.243 301.253 183.03 300.67C182.822 300.083 182.5 299.612 182.064 299.257C181.629 298.902 181.079 298.724 180.417 298.724C179.749 298.724 179.195 298.902 178.755 299.257C178.319 299.612 177.995 300.083 177.782 300.67C177.573 301.253 177.469 301.892 177.469 302.588C177.469 303.289 177.573 303.93 177.782 304.513C177.995 305.095 178.319 305.562 178.755 305.912C179.195 306.262 179.749 306.438 180.417 306.438ZM189.989 301.523V308H187.865V297.091H189.903V298.866H190.038C190.289 298.289 190.682 297.825 191.217 297.474C191.757 297.124 192.437 296.949 193.256 296.949C193.999 296.949 194.65 297.105 195.209 297.418C195.768 297.725 196.201 298.185 196.509 298.795C196.816 299.406 196.97 300.161 196.97 301.061V308H194.847V301.317C194.847 300.526 194.641 299.908 194.229 299.463C193.817 299.013 193.251 298.788 192.531 298.788C192.039 298.788 191.601 298.895 191.217 299.108C190.839 299.321 190.538 299.634 190.315 300.045C190.098 300.453 189.989 300.945 189.989 301.523ZM209.195 308.213C208.314 308.213 207.528 307.988 206.837 307.538C206.15 307.084 205.611 306.437 205.218 305.599C204.829 304.757 204.635 303.746 204.635 302.567C204.635 301.388 204.832 300.379 205.225 299.541C205.623 298.703 206.167 298.062 206.858 297.616C207.55 297.171 208.333 296.949 209.209 296.949C209.886 296.949 210.431 297.062 210.843 297.29C211.259 297.512 211.581 297.773 211.809 298.071C212.041 298.369 212.221 298.632 212.348 298.859H212.476V293.455H214.6V308H212.526V306.303H212.348C212.221 306.535 212.036 306.8 211.794 307.098C211.558 307.396 211.231 307.657 210.814 307.879C210.398 308.102 209.858 308.213 209.195 308.213ZM209.664 306.402C210.275 306.402 210.791 306.241 211.212 305.919C211.638 305.592 211.96 305.14 212.178 304.562C212.4 303.985 212.512 303.312 212.512 302.545C212.512 301.788 212.403 301.125 212.185 300.557C211.967 299.989 211.648 299.546 211.226 299.229C210.805 298.911 210.284 298.753 209.664 298.753C209.025 298.753 208.492 298.919 208.066 299.25C207.64 299.581 207.318 300.034 207.1 300.607C206.887 301.179 206.78 301.826 206.78 302.545C206.78 303.275 206.889 303.93 207.107 304.513C207.325 305.095 207.647 305.557 208.073 305.898C208.504 306.234 209.034 306.402 209.664 306.402ZM222.332 308.22C221.258 308.22 220.332 307.991 219.555 307.531C218.784 307.067 218.187 306.416 217.766 305.578C217.349 304.735 217.141 303.748 217.141 302.616C217.141 301.499 217.349 300.514 217.766 299.662C218.187 298.81 218.774 298.144 219.527 297.666C220.285 297.188 221.17 296.949 222.183 296.949C222.799 296.949 223.395 297.051 223.973 297.254C224.551 297.458 225.069 297.777 225.528 298.213C225.988 298.649 226.35 299.214 226.615 299.911C226.88 300.602 227.013 301.442 227.013 302.432V303.185H218.341V301.594H224.932C224.932 301.035 224.818 300.54 224.591 300.109C224.364 299.674 224.044 299.33 223.632 299.08C223.225 298.829 222.747 298.703 222.197 298.703C221.601 298.703 221.08 298.85 220.635 299.143C220.195 299.432 219.854 299.811 219.612 300.28C219.375 300.744 219.257 301.248 219.257 301.793V303.036C219.257 303.765 219.385 304.385 219.641 304.896C219.901 305.408 220.263 305.798 220.727 306.068C221.191 306.333 221.733 306.466 222.354 306.466C222.756 306.466 223.123 306.409 223.455 306.295C223.786 306.177 224.072 306.002 224.314 305.77C224.555 305.538 224.74 305.251 224.868 304.911L226.878 305.273C226.717 305.865 226.428 306.383 226.011 306.828C225.599 307.268 225.081 307.612 224.456 307.858C223.836 308.099 223.128 308.22 222.332 308.22ZM237.544 299.754L235.619 300.095C235.538 299.849 235.411 299.615 235.235 299.392C235.065 299.17 234.833 298.987 234.539 298.845C234.246 298.703 233.879 298.632 233.439 298.632C232.837 298.632 232.335 298.767 231.933 299.037C231.53 299.302 231.329 299.645 231.329 300.067C231.329 300.431 231.464 300.725 231.734 300.947C232.004 301.17 232.44 301.352 233.041 301.494L234.774 301.892C235.778 302.124 236.526 302.482 237.018 302.964C237.511 303.447 237.757 304.075 237.757 304.847C237.757 305.5 237.567 306.082 237.189 306.594C236.815 307.1 236.291 307.498 235.619 307.787C234.951 308.076 234.177 308.22 233.297 308.22C232.075 308.22 231.078 307.96 230.306 307.439C229.535 306.913 229.061 306.168 228.886 305.202L230.939 304.889C231.066 305.424 231.329 305.829 231.727 306.104C232.125 306.374 232.643 306.509 233.282 306.509C233.978 306.509 234.535 306.364 234.951 306.075C235.368 305.782 235.576 305.424 235.576 305.003C235.576 304.662 235.449 304.375 235.193 304.143C234.942 303.911 234.556 303.736 234.035 303.618L232.189 303.213C231.171 302.981 230.418 302.612 229.93 302.105C229.447 301.598 229.206 300.957 229.206 300.18C229.206 299.536 229.386 298.973 229.745 298.49C230.105 298.007 230.602 297.631 231.237 297.361C231.871 297.086 232.598 296.949 233.417 296.949C234.596 296.949 235.524 297.205 236.201 297.716C236.878 298.223 237.326 298.902 237.544 299.754ZM248.559 308.241C247.868 308.241 247.243 308.114 246.684 307.858C246.126 307.598 245.683 307.221 245.356 306.729C245.034 306.236 244.873 305.633 244.873 304.918C244.873 304.302 244.992 303.795 245.228 303.398C245.465 303 245.785 302.685 246.187 302.453C246.59 302.221 247.039 302.046 247.537 301.928C248.034 301.809 248.54 301.719 249.056 301.658C249.71 301.582 250.24 301.52 250.647 301.473C251.055 301.421 251.35 301.338 251.535 301.224C251.72 301.111 251.812 300.926 251.812 300.67V300.621C251.812 300 251.637 299.52 251.287 299.179C250.941 298.838 250.425 298.668 249.738 298.668C249.023 298.668 248.46 298.826 248.048 299.143C247.641 299.456 247.359 299.804 247.203 300.188L245.207 299.733C245.444 299.07 245.789 298.535 246.244 298.128C246.703 297.716 247.231 297.418 247.828 297.233C248.424 297.044 249.052 296.949 249.71 296.949C250.145 296.949 250.607 297.001 251.095 297.105C251.587 297.205 252.047 297.389 252.473 297.659C252.904 297.929 253.256 298.315 253.531 298.817C253.806 299.314 253.943 299.96 253.943 300.756V308H251.869V306.509H251.784C251.646 306.783 251.44 307.053 251.166 307.318C250.891 307.583 250.538 307.804 250.108 307.979C249.677 308.154 249.161 308.241 248.559 308.241ZM249.021 306.537C249.608 306.537 250.11 306.421 250.527 306.189C250.948 305.957 251.268 305.654 251.485 305.28C251.708 304.901 251.819 304.496 251.819 304.065V302.659C251.743 302.735 251.597 302.806 251.379 302.872C251.166 302.934 250.922 302.988 250.647 303.036C250.373 303.078 250.105 303.118 249.845 303.156C249.584 303.189 249.367 303.218 249.191 303.241C248.779 303.294 248.403 303.381 248.062 303.504C247.726 303.627 247.456 303.805 247.252 304.037C247.054 304.264 246.954 304.567 246.954 304.946C246.954 305.472 247.148 305.869 247.537 306.139C247.925 306.404 248.42 306.537 249.021 306.537ZM256.771 312.091V297.091H258.845V298.859H259.023C259.146 298.632 259.323 298.369 259.555 298.071C259.787 297.773 260.109 297.512 260.521 297.29C260.933 297.062 261.478 296.949 262.155 296.949C263.036 296.949 263.821 297.171 264.513 297.616C265.204 298.062 265.746 298.703 266.139 299.541C266.537 300.379 266.736 301.388 266.736 302.567C266.736 303.746 266.539 304.757 266.146 305.599C265.753 306.437 265.214 307.084 264.527 307.538C263.84 307.988 263.057 308.213 262.176 308.213C261.513 308.213 260.971 308.102 260.55 307.879C260.133 307.657 259.806 307.396 259.57 307.098C259.333 306.8 259.151 306.535 259.023 306.303H258.895V312.091H256.771ZM258.852 302.545C258.852 303.312 258.964 303.985 259.186 304.562C259.409 305.14 259.731 305.592 260.152 305.919C260.573 306.241 261.089 306.402 261.7 306.402C262.335 306.402 262.865 306.234 263.291 305.898C263.717 305.557 264.039 305.095 264.257 304.513C264.48 303.93 264.591 303.275 264.591 302.545C264.591 301.826 264.482 301.179 264.264 300.607C264.051 300.034 263.729 299.581 263.298 299.25C262.872 298.919 262.339 298.753 261.7 298.753C261.085 298.753 260.564 298.911 260.138 299.229C259.716 299.546 259.397 299.989 259.179 300.557C258.961 301.125 258.852 301.788 258.852 302.545ZM269.115 312.091V297.091H271.189V298.859H271.366C271.49 298.632 271.667 298.369 271.899 298.071C272.131 297.773 272.453 297.512 272.865 297.29C273.277 297.062 273.821 296.949 274.499 296.949C275.379 296.949 276.165 297.171 276.857 297.616C277.548 298.062 278.09 298.703 278.483 299.541C278.881 300.379 279.08 301.388 279.08 302.567C279.08 303.746 278.883 304.757 278.49 305.599C278.097 306.437 277.557 307.084 276.871 307.538C276.184 307.988 275.401 308.213 274.52 308.213C273.857 308.213 273.315 308.102 272.893 307.879C272.477 307.657 272.15 307.396 271.913 307.098C271.677 306.8 271.494 306.535 271.366 306.303H271.239V312.091H269.115ZM271.196 302.545C271.196 303.312 271.307 303.985 271.53 304.562C271.752 305.14 272.074 305.592 272.496 305.919C272.917 306.241 273.433 306.402 274.044 306.402C274.679 306.402 275.209 306.234 275.635 305.898C276.061 305.557 276.383 305.095 276.601 304.513C276.823 303.93 276.935 303.275 276.935 302.545C276.935 301.826 276.826 301.179 276.608 300.607C276.395 300.034 276.073 299.581 275.642 299.25C275.216 298.919 274.683 298.753 274.044 298.753C273.429 298.753 272.908 298.911 272.482 299.229C272.06 299.546 271.741 299.989 271.523 300.557C271.305 301.125 271.196 301.788 271.196 302.545ZM286.161 308.22C285.086 308.22 284.16 307.991 283.384 307.531C282.612 307.067 282.015 306.416 281.594 305.578C281.177 304.735 280.969 303.748 280.969 302.616C280.969 301.499 281.177 300.514 281.594 299.662C282.015 298.81 282.602 298.144 283.355 297.666C284.113 297.188 284.998 296.949 286.011 296.949C286.627 296.949 287.223 297.051 287.801 297.254C288.379 297.458 288.897 297.777 289.357 298.213C289.816 298.649 290.178 299.214 290.443 299.911C290.708 300.602 290.841 301.442 290.841 302.432V303.185H282.169V301.594H288.76C288.76 301.035 288.646 300.54 288.419 300.109C288.192 299.674 287.872 299.33 287.46 299.08C287.053 298.829 286.575 298.703 286.026 298.703C285.429 298.703 284.908 298.85 284.463 299.143C284.023 299.432 283.682 299.811 283.44 300.28C283.204 300.744 283.085 301.248 283.085 301.793V303.036C283.085 303.765 283.213 304.385 283.469 304.896C283.729 305.408 284.091 305.798 284.555 306.068C285.019 306.333 285.562 306.466 286.182 306.466C286.584 306.466 286.951 306.409 287.283 306.295C287.614 306.177 287.901 306.002 288.142 305.77C288.384 305.538 288.568 305.251 288.696 304.911L290.706 305.273C290.545 305.865 290.256 306.383 289.839 306.828C289.428 307.268 288.909 307.612 288.284 307.858C287.664 308.099 286.956 308.22 286.161 308.22ZM295.321 293.455V308H293.197V293.455H295.321ZM306.352 299.754L304.428 300.095C304.347 299.849 304.219 299.615 304.044 299.392C303.874 299.17 303.642 298.987 303.348 298.845C303.054 298.703 302.688 298.632 302.247 298.632C301.646 298.632 301.144 298.767 300.741 299.037C300.339 299.302 300.138 299.645 300.138 300.067C300.138 300.431 300.273 300.725 300.543 300.947C300.813 301.17 301.248 301.352 301.849 301.494L303.582 301.892C304.586 302.124 305.334 302.482 305.827 302.964C306.319 303.447 306.565 304.075 306.565 304.847C306.565 305.5 306.376 306.082 305.997 306.594C305.623 307.1 305.1 307.498 304.428 307.787C303.76 308.076 302.986 308.22 302.105 308.22C300.884 308.22 299.887 307.96 299.115 307.439C298.343 306.913 297.87 306.168 297.695 305.202L299.747 304.889C299.875 305.424 300.138 305.829 300.536 306.104C300.933 306.374 301.452 306.509 302.091 306.509C302.787 306.509 303.343 306.364 303.76 306.075C304.177 305.782 304.385 305.424 304.385 305.003C304.385 304.662 304.257 304.375 304.001 304.143C303.75 303.911 303.365 303.736 302.844 303.618L300.997 303.213C299.979 302.981 299.226 302.612 298.739 302.105C298.256 301.598 298.014 300.957 298.014 300.18C298.014 299.536 298.194 298.973 298.554 298.49C298.914 298.007 299.411 297.631 300.045 297.361C300.68 297.086 301.407 296.949 302.226 296.949C303.405 296.949 304.333 297.205 305.01 297.716C305.687 298.223 306.134 298.902 306.352 299.754ZM314.193 312.091V297.091H316.267V298.859H316.445C316.568 298.632 316.745 298.369 316.977 298.071C317.209 297.773 317.531 297.512 317.943 297.29C318.355 297.062 318.9 296.949 319.577 296.949C320.457 296.949 321.243 297.171 321.935 297.616C322.626 298.062 323.168 298.703 323.561 299.541C323.959 300.379 324.158 301.388 324.158 302.567C324.158 303.746 323.961 304.757 323.568 305.599C323.175 306.437 322.635 307.084 321.949 307.538C321.262 307.988 320.479 308.213 319.598 308.213C318.935 308.213 318.393 308.102 317.972 307.879C317.555 307.657 317.228 307.396 316.991 307.098C316.755 306.8 316.572 306.535 316.445 306.303H316.317V312.091H314.193ZM316.274 302.545C316.274 303.312 316.385 303.985 316.608 304.562C316.83 305.14 317.152 305.592 317.574 305.919C317.995 306.241 318.511 306.402 319.122 306.402C319.757 306.402 320.287 306.234 320.713 305.898C321.139 305.557 321.461 305.095 321.679 304.513C321.902 303.93 322.013 303.275 322.013 302.545C322.013 301.826 321.904 301.179 321.686 300.607C321.473 300.034 321.151 299.581 320.72 299.25C320.294 298.919 319.761 298.753 319.122 298.753C318.507 298.753 317.986 298.911 317.56 299.229C317.138 299.546 316.819 299.989 316.601 300.557C316.383 301.125 316.274 301.788 316.274 302.545ZM329.712 308.241C329.02 308.241 328.395 308.114 327.837 307.858C327.278 307.598 326.835 307.221 326.509 306.729C326.187 306.236 326.026 305.633 326.026 304.918C326.026 304.302 326.144 303.795 326.381 303.398C326.617 303 326.937 302.685 327.339 302.453C327.742 302.221 328.192 302.046 328.689 301.928C329.186 301.809 329.693 301.719 330.209 301.658C330.862 301.582 331.393 301.52 331.8 301.473C332.207 301.421 332.503 301.338 332.688 301.224C332.872 301.111 332.964 300.926 332.964 300.67V300.621C332.964 300 332.789 299.52 332.439 299.179C332.093 298.838 331.577 298.668 330.891 298.668C330.176 298.668 329.612 298.826 329.2 299.143C328.793 299.456 328.511 299.804 328.355 300.188L326.359 299.733C326.596 299.07 326.942 298.535 327.396 298.128C327.856 297.716 328.384 297.418 328.98 297.233C329.577 297.044 330.204 296.949 330.862 296.949C331.298 296.949 331.759 297.001 332.247 297.105C332.74 297.205 333.199 297.389 333.625 297.659C334.056 297.929 334.409 298.315 334.683 298.817C334.958 299.314 335.095 299.96 335.095 300.756V308H333.021V306.509H332.936C332.799 306.783 332.593 307.053 332.318 307.318C332.044 307.583 331.691 307.804 331.26 307.979C330.829 308.154 330.313 308.241 329.712 308.241ZM330.173 306.537C330.76 306.537 331.262 306.421 331.679 306.189C332.1 305.957 332.42 305.654 332.638 305.28C332.86 304.901 332.972 304.496 332.972 304.065V302.659C332.896 302.735 332.749 302.806 332.531 302.872C332.318 302.934 332.074 302.988 331.8 303.036C331.525 303.078 331.258 303.118 330.997 303.156C330.737 303.189 330.519 303.218 330.344 303.241C329.932 303.294 329.555 303.381 329.214 303.504C328.878 303.627 328.608 303.805 328.405 304.037C328.206 304.264 328.107 304.567 328.107 304.946C328.107 305.472 328.301 305.869 328.689 306.139C329.077 306.404 329.572 306.537 330.173 306.537ZM337.924 308V297.091H339.976V298.824H340.09C340.289 298.237 340.639 297.775 341.141 297.439C341.648 297.098 342.221 296.928 342.86 296.928C342.992 296.928 343.149 296.932 343.328 296.942C343.513 296.951 343.658 296.963 343.762 296.977V299.009C343.676 298.985 343.525 298.959 343.307 298.93C343.089 298.897 342.872 298.881 342.654 298.881C342.152 298.881 341.704 298.987 341.311 299.2C340.923 299.409 340.615 299.7 340.388 300.074C340.161 300.443 340.047 300.865 340.047 301.338V308H337.924ZM351.063 308V293.455H356.248C357.379 293.455 358.317 293.661 359.06 294.072C359.803 294.484 360.36 295.048 360.729 295.763C361.098 296.473 361.283 297.273 361.283 298.163C361.283 299.058 361.096 299.863 360.722 300.578C360.353 301.288 359.794 301.852 359.046 302.268C358.302 302.68 357.367 302.886 356.24 302.886H352.675V301.026H356.042C356.757 301.026 357.337 300.902 357.782 300.656C358.227 300.405 358.553 300.064 358.762 299.634C358.97 299.203 359.074 298.713 359.074 298.163C359.074 297.614 358.97 297.126 358.762 296.7C358.553 296.274 358.224 295.94 357.775 295.699C357.329 295.457 356.742 295.337 356.013 295.337H353.257V308H351.063ZM363.685 308V297.091H365.738V298.824H365.852C366.05 298.237 366.401 297.775 366.903 297.439C367.409 297.098 367.982 296.928 368.621 296.928C368.754 296.928 368.91 296.932 369.09 296.942C369.275 296.951 369.419 296.963 369.523 296.977V299.009C369.438 298.985 369.287 298.959 369.069 298.93C368.851 298.897 368.633 298.881 368.415 298.881C367.914 298.881 367.466 298.987 367.073 299.2C366.685 299.409 366.377 299.7 366.15 300.074C365.923 300.443 365.809 300.865 365.809 301.338V308H363.685ZM375.566 308.22C374.543 308.22 373.65 307.986 372.888 307.517C372.126 307.048 371.534 306.393 371.113 305.55C370.691 304.707 370.48 303.722 370.48 302.595C370.48 301.464 370.691 300.474 371.113 299.626C371.534 298.779 372.126 298.121 372.888 297.652C373.65 297.183 374.543 296.949 375.566 296.949C376.588 296.949 377.481 297.183 378.243 297.652C379.006 298.121 379.597 298.779 380.019 299.626C380.44 300.474 380.651 301.464 380.651 302.595C380.651 303.722 380.44 304.707 380.019 305.55C379.597 306.393 379.006 307.048 378.243 307.517C377.481 307.986 376.588 308.22 375.566 308.22ZM375.573 306.438C376.236 306.438 376.785 306.262 377.221 305.912C377.656 305.562 377.978 305.095 378.186 304.513C378.4 303.93 378.506 303.289 378.506 302.588C378.506 301.892 378.4 301.253 378.186 300.67C377.978 300.083 377.656 299.612 377.221 299.257C376.785 298.902 376.236 298.724 375.573 298.724C374.905 298.724 374.351 298.902 373.911 299.257C373.475 299.612 373.151 300.083 372.938 300.67C372.73 301.253 372.625 301.892 372.625 302.588C372.625 303.289 372.73 303.93 372.938 304.513C373.151 305.095 373.475 305.562 373.911 305.912C374.351 306.262 374.905 306.438 375.573 306.438ZM388.213 297.091V298.795H382.048V297.091H388.213ZM383.739 308V295.827C383.739 295.145 383.888 294.579 384.186 294.129C384.484 293.675 384.88 293.336 385.372 293.114C385.865 292.886 386.4 292.773 386.977 292.773C387.403 292.773 387.768 292.808 388.071 292.879C388.374 292.946 388.599 293.007 388.746 293.064L388.249 294.783C388.149 294.754 388.021 294.721 387.865 294.683C387.709 294.641 387.519 294.619 387.297 294.619C386.781 294.619 386.411 294.747 386.189 295.003C385.971 295.259 385.862 295.628 385.862 296.111V308H383.739ZM390.404 308V297.091H392.528V308H390.404ZM391.477 295.408C391.107 295.408 390.79 295.285 390.525 295.038C390.264 294.787 390.134 294.489 390.134 294.143C390.134 293.793 390.264 293.495 390.525 293.249C390.79 292.998 391.107 292.872 391.477 292.872C391.846 292.872 392.161 292.998 392.421 293.249C392.686 293.495 392.819 293.793 392.819 294.143C392.819 294.489 392.686 294.787 392.421 295.038C392.161 295.285 391.846 295.408 391.477 295.408ZM397.508 293.455V308H395.385V293.455H397.508Z" fill="black" fill-opacity="0.72"/>
<g filter="url(#filter1_d_895_3294)">
<circle cx="158.392" cy="148.392" r="100" fill="#8F8F8F" fill-opacity="0.1"/>
<circle cx="158.392" cy="148.392" r="99.5" stroke="#FF0000" stroke-opacity="0.3"/>
<path d="M258.392 148.392C258.392 167.047 253.173 185.33 243.326 201.175C233.479 217.02 219.397 229.794 202.67 238.055C185.943 246.315 167.239 249.731 148.672 247.918C130.105 246.105 112.415 239.134 97.6024 227.794L158.392 148.392H258.392Z" fill="#334C79"/>
<path d="M228.394 76.9736C237.705 86.2351 245.099 97.2397 250.157 109.359C255.214 121.478 257.834 134.475 257.869 147.607L157.869 147.869L228.394 76.9736Z" fill="#FF0000" fill-opacity="0.95"/>
</g>
<defs>
<filter id="filter0_d_895_3294" x="0" y="0" width="502" height="339" filterUnits="userSpaceOnUse" color-interpolation-filters="sRGB">
<feFlood flood-opacity="0" result="BackgroundImageFix"/>
<feColorMatrix in="SourceAlpha" type="matrix" values="0 0 0 0 0 0 0 0 0 0 0 0 0 0 0 0 0 0 127 0" result="hardAlpha"/>
<feOffset dy="4"/>
<feGaussianBlur stdDeviation="2"/>
<feComposite in2="hardAlpha" operator="out"/>
<feColorMatrix type="matrix" values="0 0 0 0 0 0 0 0 0 0 0 0 0 0 0 0 0 0 0.25 0"/>
<feBlend mode="normal" in2="BackgroundImageFix" result="effect1_dropShadow_895_3294"/>
<feBlend mode="normal" in="SourceGraphic" in2="effect1_dropShadow_895_3294" result="shape"/>
</filter>
<filter id="filter1_d_895_3294" x="54.3917" y="48.3916" width="208" height="208" filterUnits="userSpaceOnUse" color-interpolation-filters="sRGB">
<feFlood flood-opacity="0" result="BackgroundImageFix"/>
<feColorMatrix in="SourceAlpha" type="matrix" values="0 0 0 0 0 0 0 0 0 0 0 0 0 0 0 0 0 0 127 0" result="hardAlpha"/>
<feOffset dy="4"/>
<feGaussianBlur stdDeviation="2"/>
<feComposite in2="hardAlpha" operator="out"/>
<feColorMatrix type="matrix" values="0 0 0 0 0 0 0 0 0 0 0 0 0 0 0 0 0 0 0.25 0"/>
<feBlend mode="normal" in2="BackgroundImageFix" result="effect1_dropShadow_895_3294"/>
<feBlend mode="normal" in="SourceGraphic" in2="effect1_dropShadow_895_3294" result="shape"/>
</filter>
</defs>
</svg>
