<svg width="502" height="339" viewBox="0 0 502 339" fill="none" xmlns="http://www.w3.org/2000/svg">
<g filter="url(#filter0_d_766_664)">
<rect x="4" width="494" height="331" rx="10" fill="white" fill-opacity="0.8" shape-rendering="crispEdges"/>
</g>
<circle cx="316" cy="90" r="10" fill="#334C79"/>
<circle cx="316" cy="127" r="10" fill="#FF0000" fill-opacity="0.95"/>
<circle cx="316" cy="164" r="10" fill="white"/>
<path d="M339.057 94V85.2727H340.114V93.0625H344.17V94H339.057ZM347.597 94.1534C347.182 94.1534 346.805 94.0753 346.467 93.919C346.129 93.7599 345.861 93.5312 345.662 93.233C345.463 92.9318 345.364 92.5682 345.364 92.142C345.364 91.767 345.438 91.4631 345.585 91.2301C345.733 90.9943 345.93 90.8097 346.178 90.6761C346.425 90.5426 346.697 90.4432 346.996 90.3778C347.297 90.3097 347.599 90.2557 347.903 90.2159C348.301 90.1648 348.624 90.1264 348.871 90.1009C349.121 90.0724 349.303 90.0256 349.416 89.9602C349.533 89.8949 349.591 89.7812 349.591 89.6193V89.5852C349.591 89.1648 349.476 88.8381 349.246 88.6051C349.018 88.3722 348.673 88.2557 348.21 88.2557C347.73 88.2557 347.354 88.3608 347.081 88.571C346.808 88.7812 346.616 89.0057 346.506 89.2443L345.551 88.9034C345.722 88.5057 345.949 88.196 346.233 87.9744C346.52 87.75 346.832 87.5937 347.17 87.5057C347.511 87.4148 347.847 87.3693 348.176 87.3693C348.386 87.3693 348.628 87.3949 348.901 87.446C349.176 87.4943 349.442 87.5952 349.697 87.7486C349.956 87.902 350.17 88.1335 350.341 88.4432C350.511 88.7528 350.597 89.1676 350.597 89.6875V94H349.591V93.1136H349.54C349.472 93.2557 349.358 93.4077 349.199 93.5696C349.04 93.7315 348.828 93.8693 348.564 93.983C348.3 94.0966 347.977 94.1534 347.597 94.1534ZM347.75 93.25C348.148 93.25 348.483 93.1719 348.756 93.0156C349.031 92.8594 349.239 92.6577 349.378 92.4105C349.52 92.1634 349.591 91.9034 349.591 91.6307V90.7102C349.548 90.7614 349.455 90.8082 349.31 90.8509C349.168 90.8906 349.003 90.9261 348.815 90.9574C348.631 90.9858 348.45 91.0114 348.274 91.0341C348.101 91.054 347.96 91.071 347.852 91.0852C347.591 91.1193 347.347 91.1747 347.119 91.2514C346.895 91.3253 346.713 91.4375 346.574 91.5881C346.438 91.7358 346.369 91.9375 346.369 92.1932C346.369 92.5426 346.499 92.8068 346.757 92.9858C347.018 93.1619 347.349 93.25 347.75 93.25ZM353.438 90.0625V94H352.432V87.4545H353.404V88.4773H353.489C353.642 88.1449 353.875 87.8778 354.188 87.6761C354.5 87.4716 354.904 87.3693 355.398 87.3693C355.841 87.3693 356.229 87.4602 356.561 87.642C356.894 87.821 357.152 88.0938 357.337 88.4602C357.522 88.8239 357.614 89.2841 357.614 89.8409V94H356.608V89.9091C356.608 89.3949 356.475 88.9943 356.208 88.7074C355.941 88.4176 355.574 88.2727 355.108 88.2727C354.787 88.2727 354.5 88.3423 354.248 88.4815C353.998 88.6207 353.8 88.8239 353.655 89.0909C353.51 89.358 353.438 89.6818 353.438 90.0625ZM362.094 96.5909C361.608 96.5909 361.19 96.5284 360.841 96.4034C360.491 96.2812 360.2 96.1193 359.967 95.9176C359.737 95.7188 359.554 95.5057 359.418 95.2784L360.219 94.7159C360.31 94.8352 360.425 94.9716 360.564 95.125C360.703 95.2812 360.893 95.4162 361.135 95.5298C361.379 95.6463 361.699 95.7045 362.094 95.7045C362.622 95.7045 363.058 95.5767 363.402 95.321C363.746 95.0653 363.918 94.6648 363.918 94.1193V92.7898H363.832C363.759 92.9091 363.653 93.0568 363.517 93.233C363.384 93.4062 363.19 93.5611 362.938 93.6974C362.688 93.831 362.349 93.8977 361.923 93.8977C361.395 93.8977 360.92 93.7727 360.5 93.5227C360.082 93.2727 359.751 92.9091 359.507 92.4318C359.266 91.9545 359.145 91.375 359.145 90.6932C359.145 90.0227 359.263 89.4389 359.499 88.9418C359.734 88.4418 360.063 88.0554 360.483 87.7827C360.903 87.5071 361.389 87.3693 361.94 87.3693C362.366 87.3693 362.705 87.4403 362.955 87.5824C363.207 87.7216 363.401 87.8807 363.534 88.0597C363.67 88.2358 363.776 88.3807 363.849 88.4943H363.952V87.4545H364.923V94.1875C364.923 94.75 364.795 95.2074 364.54 95.5597C364.287 95.9148 363.946 96.1747 363.517 96.3395C363.091 96.5071 362.616 96.5909 362.094 96.5909ZM362.06 92.9943C362.463 92.9943 362.804 92.902 363.082 92.7173C363.361 92.5327 363.572 92.267 363.717 91.9205C363.862 91.5739 363.935 91.1591 363.935 90.6761C363.935 90.2045 363.864 89.7884 363.722 89.4276C363.58 89.0668 363.369 88.7841 363.091 88.5795C362.813 88.375 362.469 88.2727 362.06 88.2727C361.634 88.2727 361.278 88.3807 360.994 88.5966C360.713 88.8125 360.501 89.1023 360.359 89.4659C360.22 89.8295 360.151 90.233 360.151 90.6761C360.151 91.1307 360.222 91.5327 360.364 91.8821C360.509 92.2287 360.722 92.5014 361.003 92.7003C361.287 92.8963 361.639 92.9943 362.06 92.9943ZM370.889 91.3239V87.4545H371.895V94H370.889V92.892H370.821C370.668 93.2244 370.429 93.5071 370.105 93.7401C369.781 93.9702 369.372 94.0852 368.878 94.0852C368.469 94.0852 368.105 93.9957 367.787 93.8168C367.469 93.6349 367.219 93.3622 367.037 92.9986C366.855 92.6321 366.764 92.1705 366.764 91.6136V87.4545H367.77V91.5455C367.77 92.0227 367.903 92.4034 368.17 92.6875C368.44 92.9716 368.784 93.1136 369.202 93.1136C369.452 93.1136 369.706 93.0497 369.964 92.9219C370.226 92.794 370.445 92.598 370.621 92.3338C370.8 92.0696 370.889 91.733 370.889 91.3239ZM376.481 94.1364C375.85 94.1364 375.306 93.9972 374.849 93.7188C374.395 93.4375 374.044 93.0455 373.797 92.5426C373.552 92.0369 373.43 91.4489 373.43 90.7784C373.43 90.108 373.552 89.517 373.797 89.0057C374.044 88.4915 374.387 88.0909 374.828 87.804C375.271 87.5142 375.788 87.3693 376.379 87.3693C376.72 87.3693 377.056 87.4261 377.389 87.5398C377.721 87.6534 378.024 87.8381 378.297 88.0938C378.569 88.3466 378.787 88.6818 378.949 89.0994C379.11 89.517 379.191 90.0312 379.191 90.642V91.0682H374.146V90.1989H378.169C378.169 89.8295 378.095 89.5 377.947 89.2102C377.802 88.9205 377.595 88.6918 377.325 88.5241C377.058 88.3565 376.743 88.2727 376.379 88.2727C375.978 88.2727 375.632 88.3722 375.339 88.571C375.049 88.767 374.826 89.0227 374.67 89.3381C374.514 89.6534 374.436 89.9915 374.436 90.3523V90.9318C374.436 91.4261 374.521 91.8452 374.691 92.1889C374.865 92.5298 375.105 92.7898 375.412 92.9688C375.718 93.1449 376.075 93.233 376.481 93.233C376.745 93.233 376.984 93.196 377.197 93.1222C377.413 93.0455 377.599 92.9318 377.755 92.7812C377.912 92.6278 378.032 92.4375 378.118 92.2102L379.089 92.483C378.987 92.8125 378.815 93.1023 378.574 93.3523C378.332 93.5994 378.034 93.7926 377.679 93.9318C377.324 94.0682 376.924 94.1364 376.481 94.1364ZM384.233 94V85.2727H389.466V86.2102H385.289V89.1591H389.074V90.0966H385.289V94H384.233ZM391.069 94V87.4545H392.04V88.4432H392.109C392.228 88.1193 392.444 87.8565 392.756 87.6548C393.069 87.4531 393.421 87.3523 393.813 87.3523C393.887 87.3523 393.979 87.3537 394.09 87.3565C394.201 87.3594 394.285 87.3636 394.342 87.3693V88.392C394.308 88.3835 394.229 88.3707 394.107 88.3537C393.988 88.3338 393.862 88.3239 393.728 88.3239C393.41 88.3239 393.126 88.3906 392.876 88.5241C392.629 88.6548 392.433 88.8366 392.288 89.0696C392.146 89.2997 392.075 89.5625 392.075 89.858V94H391.069ZM397.46 94.1534C397.045 94.1534 396.669 94.0753 396.331 93.919C395.993 93.7599 395.724 93.5312 395.525 93.233C395.326 92.9318 395.227 92.5682 395.227 92.142C395.227 91.767 395.301 91.4631 395.449 91.2301C395.596 90.9943 395.794 90.8097 396.041 90.6761C396.288 90.5426 396.561 90.4432 396.859 90.3778C397.16 90.3097 397.463 90.2557 397.767 90.2159C398.164 90.1648 398.487 90.1264 398.734 90.1009C398.984 90.0724 399.166 90.0256 399.279 89.9602C399.396 89.8949 399.454 89.7812 399.454 89.6193V89.5852C399.454 89.1648 399.339 88.8381 399.109 88.6051C398.882 88.3722 398.537 88.2557 398.074 88.2557C397.593 88.2557 397.217 88.3608 396.944 88.571C396.672 88.7812 396.48 89.0057 396.369 89.2443L395.414 88.9034C395.585 88.5057 395.812 88.196 396.096 87.9744C396.383 87.75 396.696 87.5937 397.034 87.5057C397.375 87.4148 397.71 87.3693 398.039 87.3693C398.25 87.3693 398.491 87.3949 398.764 87.446C399.039 87.4943 399.305 87.5952 399.561 87.7486C399.819 87.902 400.034 88.1335 400.204 88.4432C400.375 88.7528 400.46 89.1676 400.46 89.6875V94H399.454V93.1136H399.403C399.335 93.2557 399.221 93.4077 399.062 93.5696C398.903 93.7315 398.691 93.8693 398.427 93.983C398.163 94.0966 397.841 94.1534 397.46 94.1534ZM397.613 93.25C398.011 93.25 398.346 93.1719 398.619 93.0156C398.895 92.8594 399.102 92.6577 399.241 92.4105C399.383 92.1634 399.454 91.9034 399.454 91.6307V90.7102C399.412 90.7614 399.318 90.8082 399.173 90.8509C399.031 90.8906 398.866 90.9261 398.679 90.9574C398.494 90.9858 398.314 91.0114 398.137 91.0341C397.964 91.054 397.824 91.071 397.716 91.0852C397.454 91.1193 397.21 91.1747 396.983 91.2514C396.758 91.3253 396.576 91.4375 396.437 91.5881C396.301 91.7358 396.233 91.9375 396.233 92.1932C396.233 92.5426 396.362 92.8068 396.62 92.9858C396.882 93.1619 397.213 93.25 397.613 93.25ZM403.301 90.0625V94H402.295V87.4545H403.267V88.4773H403.352C403.506 88.1449 403.739 87.8778 404.051 87.6761C404.364 87.4716 404.767 87.3693 405.261 87.3693C405.705 87.3693 406.092 87.4602 406.425 87.642C406.757 87.821 407.016 88.0938 407.2 88.4602C407.385 88.8239 407.477 89.2841 407.477 89.8409V94H406.472V89.9091C406.472 89.3949 406.338 88.9943 406.071 88.7074C405.804 88.4176 405.438 88.2727 404.972 88.2727C404.651 88.2727 404.364 88.3423 404.111 88.4815C403.861 88.6207 403.663 88.8239 403.518 89.0909C403.374 89.358 403.301 89.6818 403.301 90.0625ZM411.974 94.1364C411.36 94.1364 410.832 93.9915 410.389 93.7017C409.946 93.4119 409.605 93.0128 409.366 92.5043C409.127 91.9957 409.008 91.4148 409.008 90.7614C409.008 90.0966 409.13 89.5099 409.375 89.0014C409.622 88.4901 409.966 88.0909 410.406 87.804C410.849 87.5142 411.366 87.3693 411.957 87.3693C412.417 87.3693 412.832 87.4545 413.201 87.625C413.571 87.7955 413.873 88.0341 414.109 88.3409C414.345 88.6477 414.491 89.0057 414.548 89.4148H413.542C413.466 89.1165 413.295 88.8523 413.031 88.6222C412.77 88.3892 412.417 88.2727 411.974 88.2727C411.582 88.2727 411.238 88.375 410.943 88.5795C410.65 88.7812 410.422 89.0668 410.257 89.4361C410.095 89.8026 410.014 90.233 410.014 90.7273C410.014 91.233 410.093 91.6733 410.252 92.0483C410.414 92.4233 410.642 92.7145 410.934 92.9219C411.23 93.1293 411.576 93.233 411.974 93.233C412.235 93.233 412.473 93.1875 412.686 93.0966C412.899 93.0057 413.079 92.875 413.227 92.7045C413.375 92.5341 413.48 92.3295 413.542 92.0909H414.548C414.491 92.4773 414.35 92.8253 414.126 93.1349C413.904 93.4418 413.61 93.6861 413.244 93.8679C412.88 94.0469 412.457 94.1364 411.974 94.1364ZM417.944 94.1534C417.529 94.1534 417.153 94.0753 416.815 93.919C416.477 93.7599 416.208 93.5312 416.01 93.233C415.811 92.9318 415.711 92.5682 415.711 92.142C415.711 91.767 415.785 91.4631 415.933 91.2301C416.081 90.9943 416.278 90.8097 416.525 90.6761C416.772 90.5426 417.045 90.4432 417.343 90.3778C417.645 90.3097 417.947 90.2557 418.251 90.2159C418.649 90.1648 418.971 90.1264 419.218 90.1009C419.468 90.0724 419.65 90.0256 419.764 89.9602C419.88 89.8949 419.939 89.7812 419.939 89.6193V89.5852C419.939 89.1648 419.824 88.8381 419.593 88.6051C419.366 88.3722 419.021 88.2557 418.558 88.2557C418.078 88.2557 417.701 88.3608 417.429 88.571C417.156 88.7812 416.964 89.0057 416.853 89.2443L415.899 88.9034C416.069 88.5057 416.297 88.196 416.581 87.9744C416.868 87.75 417.18 87.5937 417.518 87.5057C417.859 87.4148 418.194 87.3693 418.524 87.3693C418.734 87.3693 418.975 87.3949 419.248 87.446C419.524 87.4943 419.789 87.5952 420.045 87.7486C420.304 87.902 420.518 88.1335 420.689 88.4432C420.859 88.7528 420.944 89.1676 420.944 89.6875V94H419.939V93.1136H419.887C419.819 93.2557 419.706 93.4077 419.547 93.5696C419.387 93.7315 419.176 93.8693 418.912 93.983C418.647 94.0966 418.325 94.1534 417.944 94.1534ZM418.098 93.25C418.495 93.25 418.831 93.1719 419.103 93.0156C419.379 92.8594 419.586 92.6577 419.725 92.4105C419.868 92.1634 419.939 91.9034 419.939 91.6307V90.7102C419.896 90.7614 419.802 90.8082 419.657 90.8509C419.515 90.8906 419.35 90.9261 419.163 90.9574C418.978 90.9858 418.798 91.0114 418.622 91.0341C418.449 91.054 418.308 91.071 418.2 91.0852C417.939 91.1193 417.694 91.1747 417.467 91.2514C417.243 91.3253 417.061 91.4375 416.922 91.5881C416.785 91.7358 416.717 91.9375 416.717 92.1932C416.717 92.5426 416.846 92.8068 417.105 92.9858C417.366 93.1619 417.697 93.25 418.098 93.25ZM422.78 94V87.4545H423.786V94H422.78ZM423.291 86.3636C423.095 86.3636 422.926 86.2969 422.784 86.1634C422.645 86.0298 422.575 85.8693 422.575 85.6818C422.575 85.4943 422.645 85.3338 422.784 85.2003C422.926 85.0668 423.095 85 423.291 85C423.487 85 423.655 85.0668 423.794 85.2003C423.936 85.3338 424.007 85.4943 424.007 85.6818C424.007 85.8693 423.936 86.0298 423.794 86.1634C423.655 86.2969 423.487 86.3636 423.291 86.3636ZM430.264 88.9205L429.36 89.1761C429.304 89.0256 429.22 88.8793 429.109 88.7372C429.001 88.5923 428.853 88.473 428.666 88.3793C428.478 88.2855 428.238 88.2386 427.946 88.2386C427.545 88.2386 427.211 88.331 426.944 88.5156C426.68 88.6974 426.548 88.929 426.548 89.2102C426.548 89.4602 426.639 89.6577 426.821 89.8026C427.002 89.9474 427.287 90.0682 427.673 90.1648L428.645 90.4034C429.23 90.5455 429.666 90.7628 429.953 91.0554C430.24 91.3452 430.383 91.7187 430.383 92.1761C430.383 92.5511 430.275 92.8864 430.059 93.1818C429.846 93.4773 429.548 93.7102 429.164 93.8807C428.781 94.0511 428.335 94.1364 427.826 94.1364C427.159 94.1364 426.606 93.9915 426.169 93.7017C425.731 93.4119 425.454 92.9886 425.338 92.4318L426.292 92.1932C426.383 92.5455 426.555 92.8097 426.808 92.9858C427.064 93.1619 427.397 93.25 427.809 93.25C428.278 93.25 428.65 93.1506 428.926 92.9517C429.204 92.75 429.343 92.5085 429.343 92.2273C429.343 92 429.264 91.8097 429.105 91.6562C428.946 91.5 428.701 91.3835 428.372 91.3068L427.281 91.0511C426.681 90.9091 426.241 90.6889 425.96 90.3906C425.681 90.0895 425.542 89.7131 425.542 89.2614C425.542 88.892 425.646 88.5653 425.853 88.2812C426.064 87.9972 426.349 87.7741 426.71 87.6122C427.074 87.4503 427.485 87.3693 427.946 87.3693C428.593 87.3693 429.102 87.5114 429.471 87.7955C429.843 88.0795 430.108 88.4545 430.264 88.9205ZM434.641 94.1364C434.011 94.1364 433.467 93.9972 433.009 93.7188C432.555 93.4375 432.204 93.0455 431.957 92.5426C431.712 92.0369 431.59 91.4489 431.59 90.7784C431.59 90.108 431.712 89.517 431.957 89.0057C432.204 88.4915 432.548 88.0909 432.988 87.804C433.431 87.5142 433.948 87.3693 434.539 87.3693C434.88 87.3693 435.217 87.4261 435.549 87.5398C435.881 87.6534 436.184 87.8381 436.457 88.0938C436.729 88.3466 436.947 88.6818 437.109 89.0994C437.271 89.517 437.352 90.0312 437.352 90.642V91.0682H432.306V90.1989H436.329C436.329 89.8295 436.255 89.5 436.107 89.2102C435.962 88.9205 435.755 88.6918 435.485 88.5241C435.218 88.3565 434.903 88.2727 434.539 88.2727C434.138 88.2727 433.792 88.3722 433.499 88.571C433.21 88.767 432.987 89.0227 432.83 89.3381C432.674 89.6534 432.596 89.9915 432.596 90.3523V90.9318C432.596 91.4261 432.681 91.8452 432.852 92.1889C433.025 92.5298 433.265 92.7898 433.572 92.9688C433.879 93.1449 434.235 93.233 434.641 93.233C434.906 93.233 435.144 93.196 435.357 93.1222C435.573 93.0455 435.759 92.9318 435.915 92.7812C436.072 92.6278 436.192 92.4375 436.278 92.2102L437.249 92.483C437.147 92.8125 436.975 93.1023 436.734 93.3523C436.492 93.5994 436.194 93.7926 435.839 93.9318C435.484 94.0682 435.085 94.1364 434.641 94.1364Z" fill="black" fill-opacity="0.9"/>
<path d="M339.057 132V123.273H340.114V131.062H344.17V132H339.057ZM347.597 132.153C347.182 132.153 346.805 132.075 346.467 131.919C346.129 131.76 345.861 131.531 345.662 131.233C345.463 130.932 345.364 130.568 345.364 130.142C345.364 129.767 345.438 129.463 345.585 129.23C345.733 128.994 345.93 128.81 346.178 128.676C346.425 128.543 346.697 128.443 346.996 128.378C347.297 128.31 347.599 128.256 347.903 128.216C348.301 128.165 348.624 128.126 348.871 128.101C349.121 128.072 349.303 128.026 349.416 127.96C349.533 127.895 349.591 127.781 349.591 127.619V127.585C349.591 127.165 349.476 126.838 349.246 126.605C349.018 126.372 348.673 126.256 348.21 126.256C347.73 126.256 347.354 126.361 347.081 126.571C346.808 126.781 346.616 127.006 346.506 127.244L345.551 126.903C345.722 126.506 345.949 126.196 346.233 125.974C346.52 125.75 346.832 125.594 347.17 125.506C347.511 125.415 347.847 125.369 348.176 125.369C348.386 125.369 348.628 125.395 348.901 125.446C349.176 125.494 349.442 125.595 349.697 125.749C349.956 125.902 350.17 126.134 350.341 126.443C350.511 126.753 350.597 127.168 350.597 127.688V132H349.591V131.114H349.54C349.472 131.256 349.358 131.408 349.199 131.57C349.04 131.732 348.828 131.869 348.564 131.983C348.3 132.097 347.977 132.153 347.597 132.153ZM347.75 131.25C348.148 131.25 348.483 131.172 348.756 131.016C349.031 130.859 349.239 130.658 349.378 130.411C349.52 130.163 349.591 129.903 349.591 129.631V128.71C349.548 128.761 349.455 128.808 349.31 128.851C349.168 128.891 349.003 128.926 348.815 128.957C348.631 128.986 348.45 129.011 348.274 129.034C348.101 129.054 347.96 129.071 347.852 129.085C347.591 129.119 347.347 129.175 347.119 129.251C346.895 129.325 346.713 129.437 346.574 129.588C346.438 129.736 346.369 129.937 346.369 130.193C346.369 130.543 346.499 130.807 346.757 130.986C347.018 131.162 347.349 131.25 347.75 131.25ZM353.438 128.062V132H352.432V125.455H353.404V126.477H353.489C353.642 126.145 353.875 125.878 354.188 125.676C354.5 125.472 354.904 125.369 355.398 125.369C355.841 125.369 356.229 125.46 356.561 125.642C356.894 125.821 357.152 126.094 357.337 126.46C357.522 126.824 357.614 127.284 357.614 127.841V132H356.608V127.909C356.608 127.395 356.475 126.994 356.208 126.707C355.941 126.418 355.574 126.273 355.108 126.273C354.787 126.273 354.5 126.342 354.248 126.482C353.998 126.621 353.8 126.824 353.655 127.091C353.51 127.358 353.438 127.682 353.438 128.062ZM362.094 134.591C361.608 134.591 361.19 134.528 360.841 134.403C360.491 134.281 360.2 134.119 359.967 133.918C359.737 133.719 359.554 133.506 359.418 133.278L360.219 132.716C360.31 132.835 360.425 132.972 360.564 133.125C360.703 133.281 360.893 133.416 361.135 133.53C361.379 133.646 361.699 133.705 362.094 133.705C362.622 133.705 363.058 133.577 363.402 133.321C363.746 133.065 363.918 132.665 363.918 132.119V130.79H363.832C363.759 130.909 363.653 131.057 363.517 131.233C363.384 131.406 363.19 131.561 362.938 131.697C362.688 131.831 362.349 131.898 361.923 131.898C361.395 131.898 360.92 131.773 360.5 131.523C360.082 131.273 359.751 130.909 359.507 130.432C359.266 129.955 359.145 129.375 359.145 128.693C359.145 128.023 359.263 127.439 359.499 126.942C359.734 126.442 360.063 126.055 360.483 125.783C360.903 125.507 361.389 125.369 361.94 125.369C362.366 125.369 362.705 125.44 362.955 125.582C363.207 125.722 363.401 125.881 363.534 126.06C363.67 126.236 363.776 126.381 363.849 126.494H363.952V125.455H364.923V132.188C364.923 132.75 364.795 133.207 364.54 133.56C364.287 133.915 363.946 134.175 363.517 134.339C363.091 134.507 362.616 134.591 362.094 134.591ZM362.06 130.994C362.463 130.994 362.804 130.902 363.082 130.717C363.361 130.533 363.572 130.267 363.717 129.92C363.862 129.574 363.935 129.159 363.935 128.676C363.935 128.205 363.864 127.788 363.722 127.428C363.58 127.067 363.369 126.784 363.091 126.58C362.813 126.375 362.469 126.273 362.06 126.273C361.634 126.273 361.278 126.381 360.994 126.597C360.713 126.812 360.501 127.102 360.359 127.466C360.22 127.83 360.151 128.233 360.151 128.676C360.151 129.131 360.222 129.533 360.364 129.882C360.509 130.229 360.722 130.501 361.003 130.7C361.287 130.896 361.639 130.994 362.06 130.994ZM370.889 129.324V125.455H371.895V132H370.889V130.892H370.821C370.668 131.224 370.429 131.507 370.105 131.74C369.781 131.97 369.372 132.085 368.878 132.085C368.469 132.085 368.105 131.996 367.787 131.817C367.469 131.635 367.219 131.362 367.037 130.999C366.855 130.632 366.764 130.17 366.764 129.614V125.455H367.77V129.545C367.77 130.023 367.903 130.403 368.17 130.688C368.44 130.972 368.784 131.114 369.202 131.114C369.452 131.114 369.706 131.05 369.964 130.922C370.226 130.794 370.445 130.598 370.621 130.334C370.8 130.07 370.889 129.733 370.889 129.324ZM376.481 132.136C375.85 132.136 375.306 131.997 374.849 131.719C374.395 131.438 374.044 131.045 373.797 130.543C373.552 130.037 373.43 129.449 373.43 128.778C373.43 128.108 373.552 127.517 373.797 127.006C374.044 126.491 374.387 126.091 374.828 125.804C375.271 125.514 375.788 125.369 376.379 125.369C376.72 125.369 377.056 125.426 377.389 125.54C377.721 125.653 378.024 125.838 378.297 126.094C378.569 126.347 378.787 126.682 378.949 127.099C379.11 127.517 379.191 128.031 379.191 128.642V129.068H374.146V128.199H378.169C378.169 127.83 378.095 127.5 377.947 127.21C377.802 126.92 377.595 126.692 377.325 126.524C377.058 126.357 376.743 126.273 376.379 126.273C375.978 126.273 375.632 126.372 375.339 126.571C375.049 126.767 374.826 127.023 374.67 127.338C374.514 127.653 374.436 127.991 374.436 128.352V128.932C374.436 129.426 374.521 129.845 374.691 130.189C374.865 130.53 375.105 130.79 375.412 130.969C375.718 131.145 376.075 131.233 376.481 131.233C376.745 131.233 376.984 131.196 377.197 131.122C377.413 131.045 377.599 130.932 377.755 130.781C377.912 130.628 378.032 130.437 378.118 130.21L379.089 130.483C378.987 130.812 378.815 131.102 378.574 131.352C378.332 131.599 378.034 131.793 377.679 131.932C377.324 132.068 376.924 132.136 376.481 132.136ZM384.591 132H383.483L386.687 123.273H387.778L390.983 132H389.875L387.267 124.653H387.199L384.591 132ZM385 128.591H389.466V129.528H385V128.591ZM393.211 128.062V132H392.206V125.455H393.177V126.477H393.262C393.416 126.145 393.649 125.878 393.961 125.676C394.274 125.472 394.677 125.369 395.172 125.369C395.615 125.369 396.002 125.46 396.335 125.642C396.667 125.821 396.926 126.094 397.11 126.46C397.295 126.824 397.387 127.284 397.387 127.841V132H396.382V127.909C396.382 127.395 396.248 126.994 395.981 126.707C395.714 126.418 395.348 126.273 394.882 126.273C394.561 126.273 394.274 126.342 394.021 126.482C393.771 126.621 393.574 126.824 393.429 127.091C393.284 127.358 393.211 127.682 393.211 128.062ZM401.867 134.591C401.381 134.591 400.964 134.528 400.614 134.403C400.265 134.281 399.974 134.119 399.741 133.918C399.511 133.719 399.327 133.506 399.191 133.278L399.992 132.716C400.083 132.835 400.198 132.972 400.337 133.125C400.477 133.281 400.667 133.416 400.908 133.53C401.153 133.646 401.472 133.705 401.867 133.705C402.396 133.705 402.832 133.577 403.175 133.321C403.519 133.065 403.691 132.665 403.691 132.119V130.79H403.606C403.532 130.909 403.427 131.057 403.29 131.233C403.157 131.406 402.964 131.561 402.711 131.697C402.461 131.831 402.123 131.898 401.697 131.898C401.168 131.898 400.694 131.773 400.273 131.523C399.856 131.273 399.525 130.909 399.281 130.432C399.039 129.955 398.918 129.375 398.918 128.693C398.918 128.023 399.036 127.439 399.272 126.942C399.508 126.442 399.836 126.055 400.256 125.783C400.677 125.507 401.163 125.369 401.714 125.369C402.14 125.369 402.478 125.44 402.728 125.582C402.981 125.722 403.174 125.881 403.308 126.06C403.444 126.236 403.549 126.381 403.623 126.494H403.725V125.455H404.697V132.188C404.697 132.75 404.569 133.207 404.313 133.56C404.06 133.915 403.719 134.175 403.29 134.339C402.864 134.507 402.39 134.591 401.867 134.591ZM401.833 130.994C402.237 130.994 402.577 130.902 402.856 130.717C403.134 130.533 403.346 130.267 403.491 129.92C403.636 129.574 403.708 129.159 403.708 128.676C403.708 128.205 403.637 127.788 403.495 127.428C403.353 127.067 403.143 126.784 402.864 126.58C402.586 126.375 402.242 126.273 401.833 126.273C401.407 126.273 401.052 126.381 400.768 126.597C400.487 126.812 400.275 127.102 400.133 127.466C399.994 127.83 399.924 128.233 399.924 128.676C399.924 129.131 399.995 129.533 400.137 129.882C400.282 130.229 400.495 130.501 400.776 130.7C401.06 130.896 401.413 130.994 401.833 130.994ZM407.543 123.273V132H406.538V123.273H407.543ZM411.311 132.153C410.897 132.153 410.52 132.075 410.182 131.919C409.844 131.76 409.576 131.531 409.377 131.233C409.178 130.932 409.078 130.568 409.078 130.142C409.078 129.767 409.152 129.463 409.3 129.23C409.448 128.994 409.645 128.81 409.892 128.676C410.14 128.543 410.412 128.443 410.711 128.378C411.012 128.31 411.314 128.256 411.618 128.216C412.016 128.165 412.338 128.126 412.586 128.101C412.836 128.072 413.017 128.026 413.131 127.96C413.248 127.895 413.306 127.781 413.306 127.619V127.585C413.306 127.165 413.191 126.838 412.961 126.605C412.733 126.372 412.388 126.256 411.925 126.256C411.445 126.256 411.069 126.361 410.796 126.571C410.523 126.781 410.331 127.006 410.221 127.244L409.266 126.903C409.436 126.506 409.664 126.196 409.948 125.974C410.235 125.75 410.547 125.594 410.885 125.506C411.226 125.415 411.561 125.369 411.891 125.369C412.101 125.369 412.343 125.395 412.615 125.446C412.891 125.494 413.157 125.595 413.412 125.749C413.671 125.902 413.885 126.134 414.056 126.443C414.226 126.753 414.311 127.168 414.311 127.688V132H413.306V131.114H413.255C413.186 131.256 413.073 131.408 412.914 131.57C412.755 131.732 412.543 131.869 412.279 131.983C412.015 132.097 411.692 132.153 411.311 132.153ZM411.465 131.25C411.863 131.25 412.198 131.172 412.471 131.016C412.746 130.859 412.953 130.658 413.093 130.411C413.235 130.163 413.306 129.903 413.306 129.631V128.71C413.263 128.761 413.169 128.808 413.025 128.851C412.882 128.891 412.718 128.926 412.53 128.957C412.346 128.986 412.165 129.011 411.989 129.034C411.816 129.054 411.675 129.071 411.567 129.085C411.306 129.119 411.061 129.175 410.834 129.251C410.61 129.325 410.428 129.437 410.289 129.588C410.152 129.736 410.084 129.937 410.084 130.193C410.084 130.543 410.213 130.807 410.472 130.986C410.733 131.162 411.064 131.25 411.465 131.25ZM416.147 132V125.455H417.153V132H416.147ZM416.658 124.364C416.462 124.364 416.293 124.297 416.151 124.163C416.012 124.03 415.942 123.869 415.942 123.682C415.942 123.494 416.012 123.334 416.151 123.2C416.293 123.067 416.462 123 416.658 123C416.854 123 417.022 123.067 417.161 123.2C417.303 123.334 417.374 123.494 417.374 123.682C417.374 123.869 417.303 124.03 417.161 124.163C417.022 124.297 416.854 124.364 416.658 124.364ZM423.631 126.92L422.728 127.176C422.671 127.026 422.587 126.879 422.476 126.737C422.368 126.592 422.221 126.473 422.033 126.379C421.846 126.286 421.605 126.239 421.313 126.239C420.912 126.239 420.578 126.331 420.311 126.516C420.047 126.697 419.915 126.929 419.915 127.21C419.915 127.46 420.006 127.658 420.188 127.803C420.37 127.947 420.654 128.068 421.04 128.165L422.012 128.403C422.597 128.545 423.033 128.763 423.32 129.055C423.607 129.345 423.75 129.719 423.75 130.176C423.75 130.551 423.642 130.886 423.426 131.182C423.213 131.477 422.915 131.71 422.532 131.881C422.148 132.051 421.702 132.136 421.194 132.136C420.526 132.136 419.973 131.991 419.536 131.702C419.098 131.412 418.821 130.989 418.705 130.432L419.659 130.193C419.75 130.545 419.922 130.81 420.175 130.986C420.431 131.162 420.765 131.25 421.176 131.25C421.645 131.25 422.017 131.151 422.293 130.952C422.571 130.75 422.711 130.509 422.711 130.227C422.711 130 422.631 129.81 422.472 129.656C422.313 129.5 422.069 129.384 421.739 129.307L420.648 129.051C420.049 128.909 419.608 128.689 419.327 128.391C419.049 128.089 418.909 127.713 418.909 127.261C418.909 126.892 419.013 126.565 419.221 126.281C419.431 125.997 419.716 125.774 420.077 125.612C420.441 125.45 420.853 125.369 421.313 125.369C421.961 125.369 422.469 125.511 422.838 125.795C423.211 126.08 423.475 126.455 423.631 126.92ZM428.009 132.136C427.378 132.136 426.834 131.997 426.376 131.719C425.922 131.438 425.571 131.045 425.324 130.543C425.08 130.037 424.957 129.449 424.957 128.778C424.957 128.108 425.08 127.517 425.324 127.006C425.571 126.491 425.915 126.091 426.355 125.804C426.798 125.514 427.315 125.369 427.906 125.369C428.247 125.369 428.584 125.426 428.916 125.54C429.249 125.653 429.551 125.838 429.824 126.094C430.097 126.347 430.314 126.682 430.476 127.099C430.638 127.517 430.719 128.031 430.719 128.642V129.068H425.673V128.199H429.696C429.696 127.83 429.622 127.5 429.474 127.21C429.33 126.92 429.122 126.692 428.852 126.524C428.585 126.357 428.27 126.273 427.906 126.273C427.506 126.273 427.159 126.372 426.866 126.571C426.577 126.767 426.354 127.023 426.197 127.338C426.041 127.653 425.963 127.991 425.963 128.352V128.932C425.963 129.426 426.048 129.845 426.219 130.189C426.392 130.53 426.632 130.79 426.939 130.969C427.246 131.145 427.602 131.233 428.009 131.233C428.273 131.233 428.511 131.196 428.724 131.122C428.94 131.045 429.126 130.932 429.283 130.781C429.439 130.628 429.56 130.437 429.645 130.21L430.616 130.483C430.514 130.812 430.342 131.102 430.101 131.352C429.859 131.599 429.561 131.793 429.206 131.932C428.851 132.068 428.452 132.136 428.009 132.136Z" fill="black" fill-opacity="0.9"/>
<path d="M339.057 166V157.273H340.114V165.062H344.17V166H339.057ZM347.597 166.153C347.182 166.153 346.805 166.075 346.467 165.919C346.129 165.76 345.861 165.531 345.662 165.233C345.463 164.932 345.364 164.568 345.364 164.142C345.364 163.767 345.438 163.463 345.585 163.23C345.733 162.994 345.93 162.81 346.178 162.676C346.425 162.543 346.697 162.443 346.996 162.378C347.297 162.31 347.599 162.256 347.903 162.216C348.301 162.165 348.624 162.126 348.871 162.101C349.121 162.072 349.303 162.026 349.416 161.96C349.533 161.895 349.591 161.781 349.591 161.619V161.585C349.591 161.165 349.476 160.838 349.246 160.605C349.018 160.372 348.673 160.256 348.21 160.256C347.73 160.256 347.354 160.361 347.081 160.571C346.808 160.781 346.616 161.006 346.506 161.244L345.551 160.903C345.722 160.506 345.949 160.196 346.233 159.974C346.52 159.75 346.832 159.594 347.17 159.506C347.511 159.415 347.847 159.369 348.176 159.369C348.386 159.369 348.628 159.395 348.901 159.446C349.176 159.494 349.442 159.595 349.697 159.749C349.956 159.902 350.17 160.134 350.341 160.443C350.511 160.753 350.597 161.168 350.597 161.688V166H349.591V165.114H349.54C349.472 165.256 349.358 165.408 349.199 165.57C349.04 165.732 348.828 165.869 348.564 165.983C348.3 166.097 347.977 166.153 347.597 166.153ZM347.75 165.25C348.148 165.25 348.483 165.172 348.756 165.016C349.031 164.859 349.239 164.658 349.378 164.411C349.52 164.163 349.591 163.903 349.591 163.631V162.71C349.548 162.761 349.455 162.808 349.31 162.851C349.168 162.891 349.003 162.926 348.815 162.957C348.631 162.986 348.45 163.011 348.274 163.034C348.101 163.054 347.96 163.071 347.852 163.085C347.591 163.119 347.347 163.175 347.119 163.251C346.895 163.325 346.713 163.437 346.574 163.588C346.438 163.736 346.369 163.937 346.369 164.193C346.369 164.543 346.499 164.807 346.757 164.986C347.018 165.162 347.349 165.25 347.75 165.25ZM353.438 162.062V166H352.432V159.455H353.404V160.477H353.489C353.642 160.145 353.875 159.878 354.188 159.676C354.5 159.472 354.904 159.369 355.398 159.369C355.841 159.369 356.229 159.46 356.561 159.642C356.894 159.821 357.152 160.094 357.337 160.46C357.522 160.824 357.614 161.284 357.614 161.841V166H356.608V161.909C356.608 161.395 356.475 160.994 356.208 160.707C355.941 160.418 355.574 160.273 355.108 160.273C354.787 160.273 354.5 160.342 354.248 160.482C353.998 160.621 353.8 160.824 353.655 161.091C353.51 161.358 353.438 161.682 353.438 162.062ZM362.094 168.591C361.608 168.591 361.19 168.528 360.841 168.403C360.491 168.281 360.2 168.119 359.967 167.918C359.737 167.719 359.554 167.506 359.418 167.278L360.219 166.716C360.31 166.835 360.425 166.972 360.564 167.125C360.703 167.281 360.893 167.416 361.135 167.53C361.379 167.646 361.699 167.705 362.094 167.705C362.622 167.705 363.058 167.577 363.402 167.321C363.746 167.065 363.918 166.665 363.918 166.119V164.79H363.832C363.759 164.909 363.653 165.057 363.517 165.233C363.384 165.406 363.19 165.561 362.938 165.697C362.688 165.831 362.349 165.898 361.923 165.898C361.395 165.898 360.92 165.773 360.5 165.523C360.082 165.273 359.751 164.909 359.507 164.432C359.266 163.955 359.145 163.375 359.145 162.693C359.145 162.023 359.263 161.439 359.499 160.942C359.734 160.442 360.063 160.055 360.483 159.783C360.903 159.507 361.389 159.369 361.94 159.369C362.366 159.369 362.705 159.44 362.955 159.582C363.207 159.722 363.401 159.881 363.534 160.06C363.67 160.236 363.776 160.381 363.849 160.494H363.952V159.455H364.923V166.188C364.923 166.75 364.795 167.207 364.54 167.56C364.287 167.915 363.946 168.175 363.517 168.339C363.091 168.507 362.616 168.591 362.094 168.591ZM362.06 164.994C362.463 164.994 362.804 164.902 363.082 164.717C363.361 164.533 363.572 164.267 363.717 163.92C363.862 163.574 363.935 163.159 363.935 162.676C363.935 162.205 363.864 161.788 363.722 161.428C363.58 161.067 363.369 160.784 363.091 160.58C362.813 160.375 362.469 160.273 362.06 160.273C361.634 160.273 361.278 160.381 360.994 160.597C360.713 160.812 360.501 161.102 360.359 161.466C360.22 161.83 360.151 162.233 360.151 162.676C360.151 163.131 360.222 163.533 360.364 163.882C360.509 164.229 360.722 164.501 361.003 164.7C361.287 164.896 361.639 164.994 362.06 164.994ZM370.889 163.324V159.455H371.895V166H370.889V164.892H370.821C370.668 165.224 370.429 165.507 370.105 165.74C369.781 165.97 369.372 166.085 368.878 166.085C368.469 166.085 368.105 165.996 367.787 165.817C367.469 165.635 367.219 165.362 367.037 164.999C366.855 164.632 366.764 164.17 366.764 163.614V159.455H367.77V163.545C367.77 164.023 367.903 164.403 368.17 164.688C368.44 164.972 368.784 165.114 369.202 165.114C369.452 165.114 369.706 165.05 369.964 164.922C370.226 164.794 370.445 164.598 370.621 164.334C370.8 164.07 370.889 163.733 370.889 163.324ZM376.481 166.136C375.85 166.136 375.306 165.997 374.849 165.719C374.395 165.438 374.044 165.045 373.797 164.543C373.552 164.037 373.43 163.449 373.43 162.778C373.43 162.108 373.552 161.517 373.797 161.006C374.044 160.491 374.387 160.091 374.828 159.804C375.271 159.514 375.788 159.369 376.379 159.369C376.72 159.369 377.056 159.426 377.389 159.54C377.721 159.653 378.024 159.838 378.297 160.094C378.569 160.347 378.787 160.682 378.949 161.099C379.11 161.517 379.191 162.031 379.191 162.642V163.068H374.146V162.199H378.169C378.169 161.83 378.095 161.5 377.947 161.21C377.802 160.92 377.595 160.692 377.325 160.524C377.058 160.357 376.743 160.273 376.379 160.273C375.978 160.273 375.632 160.372 375.339 160.571C375.049 160.767 374.826 161.023 374.67 161.338C374.514 161.653 374.436 161.991 374.436 162.352V162.932C374.436 163.426 374.521 163.845 374.691 164.189C374.865 164.53 375.105 164.79 375.412 164.969C375.718 165.145 376.075 165.233 376.481 165.233C376.745 165.233 376.984 165.196 377.197 165.122C377.413 165.045 377.599 164.932 377.755 164.781C377.912 164.628 378.032 164.437 378.118 164.21L379.089 164.483C378.987 164.812 378.815 165.102 378.574 165.352C378.332 165.599 378.034 165.793 377.679 165.932C377.324 166.068 376.924 166.136 376.481 166.136ZM384.591 166H383.483L386.687 157.273H387.778L390.983 166H389.875L387.267 158.653H387.199L384.591 166ZM385 162.591H389.466V163.528H385V162.591ZM392.206 166V159.455H393.177V160.443H393.245C393.365 160.119 393.581 159.857 393.893 159.655C394.206 159.453 394.558 159.352 394.95 159.352C395.024 159.352 395.116 159.354 395.227 159.357C395.338 159.359 395.422 159.364 395.478 159.369V160.392C395.444 160.384 395.366 160.371 395.244 160.354C395.125 160.334 394.998 160.324 394.865 160.324C394.547 160.324 394.262 160.391 394.012 160.524C393.765 160.655 393.569 160.837 393.424 161.07C393.282 161.3 393.211 161.562 393.211 161.858V166H392.206ZM398.597 166.153C398.182 166.153 397.805 166.075 397.467 165.919C397.129 165.76 396.861 165.531 396.662 165.233C396.463 164.932 396.364 164.568 396.364 164.142C396.364 163.767 396.438 163.463 396.585 163.23C396.733 162.994 396.93 162.81 397.178 162.676C397.425 162.543 397.697 162.443 397.996 162.378C398.297 162.31 398.599 162.256 398.903 162.216C399.301 162.165 399.624 162.126 399.871 162.101C400.121 162.072 400.303 162.026 400.416 161.96C400.533 161.895 400.591 161.781 400.591 161.619V161.585C400.591 161.165 400.476 160.838 400.246 160.605C400.018 160.372 399.673 160.256 399.21 160.256C398.73 160.256 398.354 160.361 398.081 160.571C397.808 160.781 397.616 161.006 397.506 161.244L396.551 160.903C396.722 160.506 396.949 160.196 397.233 159.974C397.52 159.75 397.832 159.594 398.17 159.506C398.511 159.415 398.847 159.369 399.176 159.369C399.386 159.369 399.628 159.395 399.901 159.446C400.176 159.494 400.442 159.595 400.697 159.749C400.956 159.902 401.17 160.134 401.341 160.443C401.511 160.753 401.597 161.168 401.597 161.688V166H400.591V165.114H400.54C400.472 165.256 400.358 165.408 400.199 165.57C400.04 165.732 399.828 165.869 399.564 165.983C399.3 166.097 398.977 166.153 398.597 166.153ZM398.75 165.25C399.148 165.25 399.483 165.172 399.756 165.016C400.031 164.859 400.239 164.658 400.378 164.411C400.52 164.163 400.591 163.903 400.591 163.631V162.71C400.548 162.761 400.455 162.808 400.31 162.851C400.168 162.891 400.003 162.926 399.815 162.957C399.631 162.986 399.45 163.011 399.274 163.034C399.101 163.054 398.96 163.071 398.852 163.085C398.591 163.119 398.347 163.175 398.119 163.251C397.895 163.325 397.713 163.437 397.574 163.588C397.438 163.736 397.369 163.937 397.369 164.193C397.369 164.543 397.499 164.807 397.757 164.986C398.018 165.162 398.349 165.25 398.75 165.25ZM403.569 166V157.273H404.574V160.494H404.659C404.733 160.381 404.836 160.236 404.966 160.06C405.1 159.881 405.29 159.722 405.537 159.582C405.787 159.44 406.125 159.369 406.551 159.369C407.103 159.369 407.588 159.507 408.009 159.783C408.429 160.058 408.757 160.449 408.993 160.955C409.229 161.46 409.347 162.057 409.347 162.744C409.347 163.438 409.229 164.038 408.993 164.547C408.757 165.053 408.431 165.445 408.013 165.723C407.596 165.999 407.114 166.136 406.569 166.136C406.148 166.136 405.811 166.067 405.559 165.928C405.306 165.786 405.111 165.625 404.975 165.446C404.838 165.264 404.733 165.114 404.659 164.994H404.54V166H403.569ZM404.557 162.727C404.557 163.222 404.63 163.658 404.775 164.036C404.919 164.411 405.131 164.705 405.409 164.918C405.688 165.128 406.029 165.233 406.432 165.233C406.853 165.233 407.203 165.122 407.485 164.901C407.769 164.676 407.982 164.375 408.124 163.997C408.269 163.616 408.341 163.193 408.341 162.727C408.341 162.267 408.27 161.852 408.128 161.483C407.989 161.111 407.777 160.817 407.493 160.601C407.212 160.382 406.858 160.273 406.432 160.273C406.023 160.273 405.679 160.376 405.401 160.584C405.123 160.788 404.912 161.075 404.77 161.445C404.628 161.811 404.557 162.239 404.557 162.727ZM413.63 166.136C412.999 166.136 412.455 165.997 411.998 165.719C411.543 165.438 411.192 165.045 410.945 164.543C410.701 164.037 410.578 163.449 410.578 162.778C410.578 162.108 410.701 161.517 410.945 161.006C411.192 160.491 411.536 160.091 411.976 159.804C412.419 159.514 412.936 159.369 413.527 159.369C413.868 159.369 414.205 159.426 414.537 159.54C414.87 159.653 415.172 159.838 415.445 160.094C415.718 160.347 415.935 160.682 416.097 161.099C416.259 161.517 416.34 162.031 416.34 162.642V163.068H411.294V162.199H415.317C415.317 161.83 415.243 161.5 415.096 161.21C414.951 160.92 414.743 160.692 414.473 160.524C414.206 160.357 413.891 160.273 413.527 160.273C413.127 160.273 412.78 160.372 412.488 160.571C412.198 160.767 411.975 161.023 411.819 161.338C411.662 161.653 411.584 161.991 411.584 162.352V162.932C411.584 163.426 411.669 163.845 411.84 164.189C412.013 164.53 412.253 164.79 412.56 164.969C412.867 165.145 413.223 165.233 413.63 165.233C413.894 165.233 414.132 165.196 414.346 165.122C414.561 165.045 414.748 164.932 414.904 164.781C415.06 164.628 415.181 164.437 415.266 164.21L416.238 164.483C416.135 164.812 415.963 165.102 415.722 165.352C415.48 165.599 415.182 165.793 414.827 165.932C414.472 166.068 414.073 166.136 413.63 166.136Z" fill="black" fill-opacity="0.9"/>
<path d="M131.598 308V293.455H136.783C137.91 293.455 138.845 293.649 139.588 294.037C140.336 294.425 140.895 294.963 141.264 295.649C141.634 296.331 141.818 297.119 141.818 298.014C141.818 298.904 141.631 299.688 141.257 300.365C140.888 301.037 140.329 301.561 139.581 301.935C138.838 302.309 137.902 302.496 136.776 302.496H132.848V300.607H136.577C137.287 300.607 137.865 300.505 138.31 300.301C138.759 300.098 139.089 299.802 139.297 299.413C139.505 299.025 139.609 298.559 139.609 298.014C139.609 297.465 139.503 296.989 139.29 296.587C139.081 296.184 138.752 295.876 138.303 295.663C137.857 295.446 137.273 295.337 136.548 295.337H133.793V308H131.598ZM138.778 301.438L142.372 308H139.872L136.349 301.438H138.778ZM148.883 308.22C147.808 308.22 146.883 307.991 146.106 307.531C145.334 307.067 144.738 306.416 144.316 305.578C143.9 304.735 143.691 303.748 143.691 302.616C143.691 301.499 143.9 300.514 144.316 299.662C144.738 298.81 145.325 298.144 146.078 297.666C146.835 297.188 147.721 296.949 148.734 296.949C149.35 296.949 149.946 297.051 150.524 297.254C151.101 297.458 151.62 297.777 152.079 298.213C152.538 298.649 152.901 299.214 153.166 299.911C153.431 300.602 153.564 301.442 153.564 302.432V303.185H144.892V301.594H151.483C151.483 301.035 151.369 300.54 151.142 300.109C150.914 299.674 150.595 299.33 150.183 299.08C149.776 298.829 149.297 298.703 148.748 298.703C148.152 298.703 147.631 298.85 147.186 299.143C146.745 299.432 146.404 299.811 146.163 300.28C145.926 300.744 145.808 301.248 145.808 301.793V303.036C145.808 303.765 145.936 304.385 146.191 304.896C146.452 305.408 146.814 305.798 147.278 306.068C147.742 306.333 148.284 306.466 148.904 306.466C149.307 306.466 149.674 306.409 150.005 306.295C150.337 306.177 150.623 306.002 150.865 305.77C151.106 305.538 151.291 305.251 151.419 304.911L153.429 305.273C153.268 305.865 152.979 306.383 152.562 306.828C152.15 307.268 151.632 307.612 151.007 307.858C150.386 308.099 149.679 308.22 148.883 308.22ZM147.775 295.635L149.437 292.361H151.674L149.473 295.635H147.775ZM155.92 312.091V297.091H157.994V298.859H158.171C158.294 298.632 158.472 298.369 158.704 298.071C158.936 297.773 159.258 297.512 159.67 297.29C160.082 297.062 160.626 296.949 161.303 296.949C162.184 296.949 162.97 297.171 163.661 297.616C164.353 298.062 164.895 298.703 165.288 299.541C165.685 300.379 165.884 301.388 165.884 302.567C165.884 303.746 165.688 304.757 165.295 305.599C164.902 306.437 164.362 307.084 163.675 307.538C162.989 307.988 162.205 308.213 161.325 308.213C160.662 308.213 160.12 308.102 159.698 307.879C159.281 307.657 158.955 307.396 158.718 307.098C158.481 306.8 158.299 306.535 158.171 306.303H158.043V312.091H155.92ZM158.001 302.545C158.001 303.312 158.112 303.985 158.335 304.562C158.557 305.14 158.879 305.592 159.3 305.919C159.722 306.241 160.238 306.402 160.849 306.402C161.483 306.402 162.013 306.234 162.44 305.898C162.866 305.557 163.188 305.095 163.406 304.513C163.628 303.93 163.739 303.275 163.739 302.545C163.739 301.826 163.63 301.179 163.413 300.607C163.2 300.034 162.878 299.581 162.447 299.25C162.021 298.919 161.488 298.753 160.849 298.753C160.233 298.753 159.712 298.911 159.286 299.229C158.865 299.546 158.545 299.989 158.327 300.557C158.11 301.125 158.001 301.788 158.001 302.545ZM171.438 308.241C170.747 308.241 170.122 308.114 169.563 307.858C169.004 307.598 168.562 307.221 168.235 306.729C167.913 306.236 167.752 305.633 167.752 304.918C167.752 304.302 167.871 303.795 168.107 303.398C168.344 303 168.664 302.685 169.066 302.453C169.469 302.221 169.918 302.046 170.415 301.928C170.913 301.809 171.419 301.719 171.935 301.658C172.589 301.582 173.119 301.52 173.526 301.473C173.933 301.421 174.229 301.338 174.414 301.224C174.599 301.111 174.691 300.926 174.691 300.67V300.621C174.691 300 174.516 299.52 174.165 299.179C173.82 298.838 173.304 298.668 172.617 298.668C171.902 298.668 171.339 298.826 170.927 299.143C170.52 299.456 170.238 299.804 170.082 300.188L168.086 299.733C168.323 299.07 168.668 298.535 169.123 298.128C169.582 297.716 170.11 297.418 170.707 297.233C171.303 297.044 171.931 296.949 172.589 296.949C173.024 296.949 173.486 297.001 173.974 297.105C174.466 297.205 174.925 297.389 175.352 297.659C175.782 297.929 176.135 298.315 176.41 298.817C176.684 299.314 176.822 299.96 176.822 300.756V308H174.748V306.509H174.663C174.525 306.783 174.319 307.053 174.045 307.318C173.77 307.583 173.417 307.804 172.987 307.979C172.556 308.154 172.04 308.241 171.438 308.241ZM171.9 306.537C172.487 306.537 172.989 306.421 173.406 306.189C173.827 305.957 174.147 305.654 174.364 305.28C174.587 304.901 174.698 304.496 174.698 304.065V302.659C174.622 302.735 174.476 302.806 174.258 302.872C174.045 302.934 173.801 302.988 173.526 303.036C173.252 303.078 172.984 303.118 172.724 303.156C172.463 303.189 172.246 303.218 172.07 303.241C171.658 303.294 171.282 303.381 170.941 303.504C170.605 303.627 170.335 303.805 170.131 304.037C169.933 304.264 169.833 304.567 169.833 304.946C169.833 305.472 170.027 305.869 170.415 306.139C170.804 306.404 171.299 306.537 171.9 306.537ZM179.65 308V297.091H181.703V298.824H181.816C182.015 298.237 182.366 297.775 182.868 297.439C183.374 297.098 183.947 296.928 184.586 296.928C184.719 296.928 184.875 296.932 185.055 296.942C185.24 296.951 185.384 296.963 185.488 296.977V299.009C185.403 298.985 185.252 298.959 185.034 298.93C184.816 298.897 184.598 298.881 184.38 298.881C183.878 298.881 183.431 298.987 183.038 299.2C182.65 299.409 182.342 299.7 182.115 300.074C181.887 300.443 181.774 300.865 181.774 301.338V308H179.65ZM193.063 297.091V298.795H187.104V297.091H193.063ZM188.702 294.477H190.826V304.797C190.826 305.209 190.887 305.519 191.01 305.727C191.133 305.931 191.292 306.071 191.486 306.146C191.685 306.217 191.9 306.253 192.132 306.253C192.303 306.253 192.452 306.241 192.58 306.217C192.708 306.194 192.807 306.175 192.878 306.161L193.262 307.915C193.139 307.962 192.963 308.009 192.736 308.057C192.509 308.109 192.225 308.137 191.884 308.142C191.325 308.152 190.804 308.052 190.321 307.844C189.838 307.635 189.448 307.313 189.15 306.878C188.851 306.442 188.702 305.895 188.702 305.237V294.477ZM195.412 308V297.091H197.536V308H195.412ZM196.484 295.408C196.115 295.408 195.798 295.285 195.533 295.038C195.272 294.787 195.142 294.489 195.142 294.143C195.142 293.793 195.272 293.495 195.533 293.249C195.798 292.998 196.115 292.872 196.484 292.872C196.854 292.872 197.169 292.998 197.429 293.249C197.694 293.495 197.827 293.793 197.827 294.143C197.827 294.489 197.694 294.787 197.429 295.038C197.169 295.285 196.854 295.408 196.484 295.408ZM205.485 297.091V298.795H199.526V297.091H205.485ZM201.124 294.477H203.248V304.797C203.248 305.209 203.309 305.519 203.432 305.727C203.555 305.931 203.714 306.071 203.908 306.146C204.107 306.217 204.322 306.253 204.554 306.253C204.725 306.253 204.874 306.241 205.002 306.217C205.13 306.194 205.229 306.175 205.3 306.161L205.684 307.915C205.56 307.962 205.385 308.009 205.158 308.057C204.931 308.109 204.647 308.137 204.306 308.142C203.747 308.152 203.226 308.052 202.743 307.844C202.26 307.635 201.87 307.313 201.571 306.878C201.273 306.442 201.124 305.895 201.124 305.237V294.477ZM207.834 308V297.091H209.957V308H207.834ZM208.906 295.408C208.537 295.408 208.22 295.285 207.955 295.038C207.694 294.787 207.564 294.489 207.564 294.143C207.564 293.793 207.694 293.495 207.955 293.249C208.22 292.998 208.537 292.872 208.906 292.872C209.276 292.872 209.59 292.998 209.851 293.249C210.116 293.495 210.249 293.793 210.249 294.143C210.249 294.489 210.116 294.787 209.851 295.038C209.59 295.285 209.276 295.408 208.906 295.408ZM217.409 308.22C216.387 308.22 215.494 307.986 214.732 307.517C213.97 307.048 213.378 306.393 212.956 305.55C212.535 304.707 212.324 303.722 212.324 302.595C212.324 301.464 212.535 300.474 212.956 299.626C213.378 298.779 213.97 298.121 214.732 297.652C215.494 297.183 216.387 296.949 217.409 296.949C218.432 296.949 219.325 297.183 220.087 297.652C220.849 298.121 221.441 298.779 221.863 299.626C222.284 300.474 222.495 301.464 222.495 302.595C222.495 303.722 222.284 304.707 221.863 305.55C221.441 306.393 220.849 307.048 220.087 307.517C219.325 307.986 218.432 308.22 217.409 308.22ZM217.417 306.438C218.079 306.438 218.629 306.262 219.064 305.912C219.5 305.562 219.822 305.095 220.03 304.513C220.243 303.93 220.35 303.289 220.35 302.588C220.35 301.892 220.243 301.253 220.03 300.67C219.822 300.083 219.5 299.612 219.064 299.257C218.629 298.902 218.079 298.724 217.417 298.724C216.749 298.724 216.195 298.902 215.755 299.257C215.319 299.612 214.995 300.083 214.782 300.67C214.573 301.253 214.469 301.892 214.469 302.588C214.469 303.289 214.573 303.93 214.782 304.513C214.995 305.095 215.319 305.562 215.755 305.912C216.195 306.262 216.749 306.438 217.417 306.438ZM226.989 301.523V308H224.865V297.091H226.903V298.866H227.038C227.289 298.289 227.682 297.825 228.217 297.474C228.757 297.124 229.437 296.949 230.256 296.949C230.999 296.949 231.65 297.105 232.209 297.418C232.768 297.725 233.201 298.185 233.509 298.795C233.816 299.406 233.97 300.161 233.97 301.061V308H231.847V301.317C231.847 300.526 231.641 299.908 231.229 299.463C230.817 299.013 230.251 298.788 229.531 298.788C229.039 298.788 228.601 298.895 228.217 299.108C227.839 299.321 227.538 299.634 227.315 300.045C227.098 300.453 226.989 300.945 226.989 301.523ZM246.195 308.213C245.314 308.213 244.528 307.988 243.837 307.538C243.15 307.084 242.611 306.437 242.218 305.599C241.829 304.757 241.635 303.746 241.635 302.567C241.635 301.388 241.832 300.379 242.225 299.541C242.623 298.703 243.167 298.062 243.858 297.616C244.55 297.171 245.333 296.949 246.209 296.949C246.886 296.949 247.431 297.062 247.843 297.29C248.259 297.512 248.581 297.773 248.809 298.071C249.041 298.369 249.221 298.632 249.348 298.859H249.476V293.455H251.6V308H249.526V306.303H249.348C249.221 306.535 249.036 306.8 248.794 307.098C248.558 307.396 248.231 307.657 247.814 307.879C247.398 308.102 246.858 308.213 246.195 308.213ZM246.664 306.402C247.275 306.402 247.791 306.241 248.212 305.919C248.638 305.592 248.96 305.14 249.178 304.562C249.4 303.985 249.512 303.312 249.512 302.545C249.512 301.788 249.403 301.125 249.185 300.557C248.967 299.989 248.648 299.546 248.226 299.229C247.805 298.911 247.284 298.753 246.664 298.753C246.025 298.753 245.492 298.919 245.066 299.25C244.64 299.581 244.318 300.034 244.1 300.607C243.887 301.179 243.78 301.826 243.78 302.545C243.78 303.275 243.889 303.93 244.107 304.513C244.325 305.095 244.647 305.557 245.073 305.898C245.504 306.234 246.034 306.402 246.664 306.402ZM259.332 308.22C258.258 308.22 257.332 307.991 256.555 307.531C255.784 307.067 255.187 306.416 254.766 305.578C254.349 304.735 254.141 303.748 254.141 302.616C254.141 301.499 254.349 300.514 254.766 299.662C255.187 298.81 255.774 298.144 256.527 297.666C257.285 297.188 258.17 296.949 259.183 296.949C259.799 296.949 260.395 297.051 260.973 297.254C261.551 297.458 262.069 297.777 262.528 298.213C262.988 298.649 263.35 299.214 263.615 299.911C263.88 300.602 264.013 301.442 264.013 302.432V303.185H255.341V301.594H261.932C261.932 301.035 261.818 300.54 261.591 300.109C261.364 299.674 261.044 299.33 260.632 299.08C260.225 298.829 259.747 298.703 259.197 298.703C258.601 298.703 258.08 298.85 257.635 299.143C257.195 299.432 256.854 299.811 256.612 300.28C256.375 300.744 256.257 301.248 256.257 301.793V303.036C256.257 303.765 256.385 304.385 256.641 304.896C256.901 305.408 257.263 305.798 257.727 306.068C258.191 306.333 258.733 306.466 259.354 306.466C259.756 306.466 260.123 306.409 260.455 306.295C260.786 306.177 261.072 306.002 261.314 305.77C261.555 305.538 261.74 305.251 261.868 304.911L263.878 305.273C263.717 305.865 263.428 306.383 263.011 306.828C262.599 307.268 262.081 307.612 261.456 307.858C260.836 308.099 260.128 308.22 259.332 308.22ZM274.544 299.754L272.619 300.095C272.538 299.849 272.411 299.615 272.235 299.392C272.065 299.17 271.833 298.987 271.539 298.845C271.246 298.703 270.879 298.632 270.439 298.632C269.837 298.632 269.335 298.767 268.933 299.037C268.53 299.302 268.329 299.645 268.329 300.067C268.329 300.431 268.464 300.725 268.734 300.947C269.004 301.17 269.44 301.352 270.041 301.494L271.774 301.892C272.778 302.124 273.526 302.482 274.018 302.964C274.511 303.447 274.757 304.075 274.757 304.847C274.757 305.5 274.567 306.082 274.189 306.594C273.815 307.1 273.291 307.498 272.619 307.787C271.951 308.076 271.177 308.22 270.297 308.22C269.075 308.22 268.078 307.96 267.306 307.439C266.535 306.913 266.061 306.168 265.886 305.202L267.939 304.889C268.066 305.424 268.329 305.829 268.727 306.104C269.125 306.374 269.643 306.509 270.282 306.509C270.978 306.509 271.535 306.364 271.951 306.075C272.368 305.782 272.576 305.424 272.576 305.003C272.576 304.662 272.449 304.375 272.193 304.143C271.942 303.911 271.556 303.736 271.035 303.618L269.189 303.213C268.171 302.981 267.418 302.612 266.93 302.105C266.447 301.598 266.206 300.957 266.206 300.18C266.206 299.536 266.386 298.973 266.745 298.49C267.105 298.007 267.602 297.631 268.237 297.361C268.871 297.086 269.598 296.949 270.417 296.949C271.596 296.949 272.524 297.205 273.201 297.716C273.878 298.223 274.326 298.902 274.544 299.754ZM285.559 308.241C284.868 308.241 284.243 308.114 283.684 307.858C283.126 307.598 282.683 307.221 282.356 306.729C282.034 306.236 281.873 305.633 281.873 304.918C281.873 304.302 281.992 303.795 282.228 303.398C282.465 303 282.785 302.685 283.187 302.453C283.59 302.221 284.039 302.046 284.537 301.928C285.034 301.809 285.54 301.719 286.056 301.658C286.71 301.582 287.24 301.52 287.647 301.473C288.055 301.421 288.35 301.338 288.535 301.224C288.72 301.111 288.812 300.926 288.812 300.67V300.621C288.812 300 288.637 299.52 288.287 299.179C287.941 298.838 287.425 298.668 286.738 298.668C286.023 298.668 285.46 298.826 285.048 299.143C284.641 299.456 284.359 299.804 284.203 300.188L282.207 299.733C282.444 299.07 282.789 298.535 283.244 298.128C283.703 297.716 284.231 297.418 284.828 297.233C285.424 297.044 286.052 296.949 286.71 296.949C287.145 296.949 287.607 297.001 288.095 297.105C288.587 297.205 289.047 297.389 289.473 297.659C289.904 297.929 290.256 298.315 290.531 298.817C290.806 299.314 290.943 299.96 290.943 300.756V308H288.869V306.509H288.784C288.646 306.783 288.44 307.053 288.166 307.318C287.891 307.583 287.538 307.804 287.108 307.979C286.677 308.154 286.161 308.241 285.559 308.241ZM286.021 306.537C286.608 306.537 287.11 306.421 287.527 306.189C287.948 305.957 288.268 305.654 288.485 305.28C288.708 304.901 288.819 304.496 288.819 304.065V302.659C288.743 302.735 288.597 302.806 288.379 302.872C288.166 302.934 287.922 302.988 287.647 303.036C287.373 303.078 287.105 303.118 286.845 303.156C286.584 303.189 286.367 303.218 286.191 303.241C285.779 303.294 285.403 303.381 285.062 303.504C284.726 303.627 284.456 303.805 284.252 304.037C284.054 304.264 283.954 304.567 283.954 304.946C283.954 305.472 284.148 305.869 284.537 306.139C284.925 306.404 285.42 306.537 286.021 306.537ZM293.771 312.091V297.091H295.845V298.859H296.023C296.146 298.632 296.323 298.369 296.555 298.071C296.787 297.773 297.109 297.512 297.521 297.29C297.933 297.062 298.478 296.949 299.155 296.949C300.036 296.949 300.821 297.171 301.513 297.616C302.204 298.062 302.746 298.703 303.139 299.541C303.537 300.379 303.736 301.388 303.736 302.567C303.736 303.746 303.539 304.757 303.146 305.599C302.753 306.437 302.214 307.084 301.527 307.538C300.84 307.988 300.057 308.213 299.176 308.213C298.513 308.213 297.971 308.102 297.55 307.879C297.133 307.657 296.806 307.396 296.57 307.098C296.333 306.8 296.151 306.535 296.023 306.303H295.895V312.091H293.771ZM295.852 302.545C295.852 303.312 295.964 303.985 296.186 304.562C296.409 305.14 296.731 305.592 297.152 305.919C297.573 306.241 298.089 306.402 298.7 306.402C299.335 306.402 299.865 306.234 300.291 305.898C300.717 305.557 301.039 305.095 301.257 304.513C301.48 303.93 301.591 303.275 301.591 302.545C301.591 301.826 301.482 301.179 301.264 300.607C301.051 300.034 300.729 299.581 300.298 299.25C299.872 298.919 299.339 298.753 298.7 298.753C298.085 298.753 297.564 298.911 297.138 299.229C296.716 299.546 296.397 299.989 296.179 300.557C295.961 301.125 295.852 301.788 295.852 302.545ZM306.115 312.091V297.091H308.189V298.859H308.366C308.49 298.632 308.667 298.369 308.899 298.071C309.131 297.773 309.453 297.512 309.865 297.29C310.277 297.062 310.821 296.949 311.499 296.949C312.379 296.949 313.165 297.171 313.857 297.616C314.548 298.062 315.09 298.703 315.483 299.541C315.881 300.379 316.08 301.388 316.08 302.567C316.08 303.746 315.883 304.757 315.49 305.599C315.097 306.437 314.557 307.084 313.871 307.538C313.184 307.988 312.401 308.213 311.52 308.213C310.857 308.213 310.315 308.102 309.893 307.879C309.477 307.657 309.15 307.396 308.913 307.098C308.677 306.8 308.494 306.535 308.366 306.303H308.239V312.091H306.115ZM308.196 302.545C308.196 303.312 308.307 303.985 308.53 304.562C308.752 305.14 309.074 305.592 309.496 305.919C309.917 306.241 310.433 306.402 311.044 306.402C311.679 306.402 312.209 306.234 312.635 305.898C313.061 305.557 313.383 305.095 313.601 304.513C313.823 303.93 313.935 303.275 313.935 302.545C313.935 301.826 313.826 301.179 313.608 300.607C313.395 300.034 313.073 299.581 312.642 299.25C312.216 298.919 311.683 298.753 311.044 298.753C310.429 298.753 309.908 298.911 309.482 299.229C309.06 299.546 308.741 299.989 308.523 300.557C308.305 301.125 308.196 301.788 308.196 302.545ZM323.161 308.22C322.086 308.22 321.16 307.991 320.384 307.531C319.612 307.067 319.015 306.416 318.594 305.578C318.177 304.735 317.969 303.748 317.969 302.616C317.969 301.499 318.177 300.514 318.594 299.662C319.015 298.81 319.602 298.144 320.355 297.666C321.113 297.188 321.998 296.949 323.011 296.949C323.627 296.949 324.223 297.051 324.801 297.254C325.379 297.458 325.897 297.777 326.357 298.213C326.816 298.649 327.178 299.214 327.443 299.911C327.708 300.602 327.841 301.442 327.841 302.432V303.185H319.169V301.594H325.76C325.76 301.035 325.646 300.54 325.419 300.109C325.192 299.674 324.872 299.33 324.46 299.08C324.053 298.829 323.575 298.703 323.026 298.703C322.429 298.703 321.908 298.85 321.463 299.143C321.023 299.432 320.682 299.811 320.44 300.28C320.204 300.744 320.085 301.248 320.085 301.793V303.036C320.085 303.765 320.213 304.385 320.469 304.896C320.729 305.408 321.091 305.798 321.555 306.068C322.019 306.333 322.562 306.466 323.182 306.466C323.584 306.466 323.951 306.409 324.283 306.295C324.614 306.177 324.901 306.002 325.142 305.77C325.384 305.538 325.568 305.251 325.696 304.911L327.706 305.273C327.545 305.865 327.256 306.383 326.839 306.828C326.428 307.268 325.909 307.612 325.284 307.858C324.664 308.099 323.956 308.22 323.161 308.22ZM332.321 293.455V308H330.197V293.455H332.321ZM343.352 299.754L341.428 300.095C341.347 299.849 341.219 299.615 341.044 299.392C340.874 299.17 340.642 298.987 340.348 298.845C340.054 298.703 339.688 298.632 339.247 298.632C338.646 298.632 338.144 298.767 337.741 299.037C337.339 299.302 337.138 299.645 337.138 300.067C337.138 300.431 337.273 300.725 337.543 300.947C337.813 301.17 338.248 301.352 338.849 301.494L340.582 301.892C341.586 302.124 342.334 302.482 342.827 302.964C343.319 303.447 343.565 304.075 343.565 304.847C343.565 305.5 343.376 306.082 342.997 306.594C342.623 307.1 342.1 307.498 341.428 307.787C340.76 308.076 339.986 308.22 339.105 308.22C337.884 308.22 336.887 307.96 336.115 307.439C335.343 306.913 334.87 306.168 334.695 305.202L336.747 304.889C336.875 305.424 337.138 305.829 337.536 306.104C337.933 306.374 338.452 306.509 339.091 306.509C339.787 306.509 340.343 306.364 340.76 306.075C341.177 305.782 341.385 305.424 341.385 305.003C341.385 304.662 341.257 304.375 341.001 304.143C340.75 303.911 340.365 303.736 339.844 303.618L337.997 303.213C336.979 302.981 336.226 302.612 335.739 302.105C335.256 301.598 335.014 300.957 335.014 300.18C335.014 299.536 335.194 298.973 335.554 298.49C335.914 298.007 336.411 297.631 337.045 297.361C337.68 297.086 338.407 296.949 339.226 296.949C340.405 296.949 341.333 297.205 342.01 297.716C342.687 298.223 343.134 298.902 343.352 299.754Z" fill="black" fill-opacity="0.72"/>
<g filter="url(#filter1_d_766_664)">
<circle cx="158.392" cy="148.392" r="100" fill="white"/>
<circle cx="158.392" cy="148.392" r="99.5" stroke="#FF0000" stroke-opacity="0.3"/>
<path d="M258.392 148.392C258.392 167.047 253.173 185.33 243.326 201.175C233.479 217.02 219.397 229.794 202.67 238.055C185.943 246.315 167.239 249.731 148.672 247.918C130.105 246.105 112.415 239.134 97.6024 227.794L158.392 148.392H258.392Z" fill="#334C79"/>
<path d="M228.394 76.9736C237.705 86.2351 245.099 97.2397 250.157 109.359C255.214 121.478 257.834 134.475 257.869 147.607L157.869 147.869L228.394 76.9736Z" fill="#FF0000" fill-opacity="0.95"/>
</g>
<defs>
<filter id="filter0_d_766_664" x="0" y="0" width="502" height="339" filterUnits="userSpaceOnUse" color-interpolation-filters="sRGB">
<feFlood flood-opacity="0" result="BackgroundImageFix"/>
<feColorMatrix in="SourceAlpha" type="matrix" values="0 0 0 0 0 0 0 0 0 0 0 0 0 0 0 0 0 0 127 0" result="hardAlpha"/>
<feOffset dy="4"/>
<feGaussianBlur stdDeviation="2"/>
<feComposite in2="hardAlpha" operator="out"/>
<feColorMatrix type="matrix" values="0 0 0 0 0 0 0 0 0 0 0 0 0 0 0 0 0 0 0.25 0"/>
<feBlend mode="normal" in2="BackgroundImageFix" result="effect1_dropShadow_766_664"/>
<feBlend mode="normal" in="SourceGraphic" in2="effect1_dropShadow_766_664" result="shape"/>
</filter>
<filter id="filter1_d_766_664" x="54.3917" y="48.3916" width="208" height="208" filterUnits="userSpaceOnUse" color-interpolation-filters="sRGB">
<feFlood flood-opacity="0" result="BackgroundImageFix"/>
<feColorMatrix in="SourceAlpha" type="matrix" values="0 0 0 0 0 0 0 0 0 0 0 0 0 0 0 0 0 0 127 0" result="hardAlpha"/>
<feOffset dy="4"/>
<feGaussianBlur stdDeviation="2"/>
<feComposite in2="hardAlpha" operator="out"/>
<feColorMatrix type="matrix" values="0 0 0 0 0 0 0 0 0 0 0 0 0 0 0 0 0 0 0.25 0"/>
<feBlend mode="normal" in2="BackgroundImageFix" result="effect1_dropShadow_766_664"/>
<feBlend mode="normal" in="SourceGraphic" in2="effect1_dropShadow_766_664" result="shape"/>
</filter>
</defs>
</svg>
