<svg width="16" height="17" viewBox="0 0 16 17" fill="none" xmlns="http://www.w3.org/2000/svg">
<path d="M9 7.18335H13.375C13.4019 7.18335 13.4278 7.19405 13.4468 7.2131C13.4659 7.23214 13.4766 7.25798 13.4766 7.28491V13.1599C13.4766 13.6841 13.2683 14.1869 12.8976 14.5576C12.527 14.9282 12.0242 15.1365 11.5 15.1365H4.5C3.97578 15.1365 3.47304 14.9282 3.10236 14.5576C2.73168 14.1869 2.52344 13.6841 2.52344 13.1599V3.15991C2.52344 2.6357 2.73168 2.13295 3.10236 1.76227C3.47304 1.39159 3.97578 1.18335 4.5 1.18335H7.375C7.40194 1.18335 7.42777 1.19405 7.44682 1.2131C7.46586 1.23214 7.47656 1.25798 7.47656 1.28491V5.65991C7.47656 6.06395 7.63707 6.45145 7.92277 6.73715C8.20847 7.02285 8.59596 7.18335 9 7.18335ZM5.5 12.1833H10.5C10.6388 12.1833 10.772 12.1282 10.8701 12.03C10.9683 11.9319 11.0234 11.7987 11.0234 11.6599C11.0234 11.5211 10.9683 11.3879 10.8701 11.2898C10.772 11.1916 10.6388 11.1365 10.5 11.1365H5.5C5.36118 11.1365 5.22804 11.1916 5.12987 11.2898C5.03171 11.3879 4.97656 11.5211 4.97656 11.6599C4.97656 11.7987 5.03171 11.9319 5.12987 12.03C5.22804 12.1282 5.36118 12.1833 5.5 12.1833ZM5.5 9.68335H10.5C10.6388 9.68335 10.772 9.6282 10.8701 9.53004C10.9683 9.43188 11.0234 9.29874 11.0234 9.15991C11.0234 9.02109 10.9683 8.88795 10.8701 8.78979C10.772 8.69162 10.6388 8.63647 10.5 8.63647H5.5C5.36118 8.63647 5.22804 8.69162 5.12987 8.78979C5.03171 8.88795 4.97656 9.02109 4.97656 9.15991C4.97656 9.29874 5.03171 9.43188 5.12987 9.53004C5.22804 9.6282 5.36118 9.68335 5.5 9.68335Z" fill="#334C79" stroke="#334C79" stroke-width="0.046875"/>
<path d="M8.59002 1.57579C8.59003 1.5758 8.59003 1.57581 8.59004 1.57581L13.084 6.06978C13.0894 6.07524 13.0931 6.08219 13.0946 6.08974C13.0961 6.0973 13.0953 6.10512 13.0924 6.11224C13.0895 6.11936 13.0845 6.12545 13.0781 6.12974C13.0717 6.13404 13.0642 6.13635 13.0565 6.13638H9C8.87361 6.13638 8.75239 6.08617 8.66302 5.9968C8.57365 5.90742 8.52344 5.78621 8.52344 5.65982V1.60331C8.52348 1.59562 8.52579 1.58812 8.53007 1.58174C8.53437 1.57534 8.54046 1.57036 8.54757 1.56742C8.55469 1.56447 8.56252 1.5637 8.57008 1.56519C8.57762 1.56669 8.58456 1.57037 8.59002 1.57579Z" fill="#334C79" stroke="#334C79" stroke-width="0.046875"/>
</svg>
